<svg width="48" height="48" viewBox="0 0 48 48" fill="none" xmlns="http://www.w3.org/2000/svg">
<g clip-path="url(#clip0_83_599)">
<path d="M37.8127 43.7789L40.7958 46.762C42.4465 48.4127 45.1113 48.4127 46.7621 46.762C48.4127 45.1114 48.4127 42.4465 46.7621 40.7958L43.7789 37.8127L41.8896 37.7133L37.3752 42.2276L37.8127 43.7789Z" fill="#994C0F"/>
<path d="M39.8013 39.8014L46.7618 46.7619C48.4125 45.1113 48.4125 42.4464 46.7618 40.7957L43.7787 37.8126L41.8894 37.7132L39.8013 39.8014Z" fill="#713708"/>
<path d="M21.0938 39.5625H9.84375C5.9625 39.5625 2.8125 42.7125 2.8125 46.5938C2.8125 47.3813 3.43116 48 4.21875 48H26.7188C27.5063 48 28.125 47.3813 28.125 46.5938C28.125 42.7125 24.975 39.5625 21.0938 39.5625Z" fill="#994C0F"/>
<path d="M28.125 46.5938C28.125 47.3813 27.5063 48 26.7188 48H15.4688V39.5625H21.0938C24.975 39.5625 28.125 42.7125 28.125 46.5938Z" fill="#713708"/>
<path d="M43.7788 37.8123L27.6716 21.7052L21.7055 27.6713L37.8127 43.7784L43.7788 37.8123Z" fill="#994C0F"/>
<path d="M43.7788 37.8123L27.6716 21.7051L24.6886 24.6882L40.7957 40.7954L43.7788 37.8123Z" fill="#713708"/>
<path d="M19.7168 29.6604C20.8106 30.7542 22.6005 30.7542 23.6943 29.6604L29.6605 23.6942C30.7543 22.6004 30.7543 20.8105 29.6605 19.7168C28.5667 18.623 26.7769 18.623 25.6831 19.7168L19.7168 25.683C18.623 26.7768 18.623 28.5667 19.7168 29.6604Z" fill="#BF6015"/>
<path d="M22.7 22.6999L26.6774 26.6773L29.6605 23.6942C30.7543 22.6004 30.7543 20.8105 29.6605 19.7168C28.5667 18.623 26.7769 18.623 25.6831 19.7168L22.7 22.6999Z" fill="#994C0F"/>
<path d="M34.6321 14.7444L22.7 2.81226L2.81297 22.6992L14.7451 34.6314L34.6321 14.7444Z" fill="#FEA832"/>
<path d="M34.6319 14.7451L22.6997 2.8129L12.7562 12.7564L24.6884 24.6886L34.6319 14.7451Z" fill="#FE9923"/>
<path d="M16.7336 36.621C17.832 35.5226 17.832 33.7419 16.7336 32.6436L4.80122 20.7112C3.70284 19.6128 1.92206 19.6128 0.823781 20.7112C-0.274594 21.8095 -0.274594 23.5903 0.823781 24.6886L12.7562 36.621C13.8546 37.7194 15.6353 37.7194 16.7336 36.621Z" fill="#BF6015"/>
<path d="M36.6211 16.7336C37.7194 15.6353 37.7194 13.8545 36.6211 12.7562L24.6887 0.823781C23.5903 -0.274594 21.8095 -0.274594 20.7112 0.823781C19.6129 1.92216 19.6129 3.70294 20.7112 4.80122L32.6436 16.7336C33.742 17.832 35.5228 17.832 36.6211 16.7336Z" fill="#994C0F"/>
<path d="M30.9375 46.5938C30.9375 47.3813 30.3188 48 29.5312 48H1.40625C0.618656 48 0 47.3813 0 46.5938C0 45.8062 0.618656 45.1875 1.40625 45.1875H29.5312C30.3188 45.1875 30.9375 45.8062 30.9375 46.5938Z" fill="#BF6015"/>
<path d="M30.9375 46.5938C30.9375 47.3813 30.3188 48 29.5312 48H15.4688V45.1875H29.5312C30.3188 45.1875 30.9375 45.8062 30.9375 46.5938Z" fill="#994C0F"/>
</g>
<defs>
<clipPath id="clip0_83_599">
<rect width="48" height="48" fill="white"/>
</clipPath>
</defs>
</svg>
