<svg width="48" height="48" viewBox="0 0 48 48" fill="none" xmlns="http://www.w3.org/2000/svg">
<path d="M19.9322 4.88135H31.3221C35.3659 4.88135 38.6441 8.15953 38.6441 12.2034V47.1864H9.35596V15.4576C9.35596 9.61651 14.0911 4.88135 19.9322 4.88135Z" fill="#393F4A"/>
<path d="M4.47454 38.2373H10.983C11.4323 38.2373 11.7966 38.6015 11.7966 39.0509V46.3729C11.7966 46.8222 11.4323 47.1865 10.983 47.1865H1.2203C0.770981 47.1865 0.406738 46.8222 0.406738 46.3729V42.3051C0.406738 40.0585 2.22795 38.2373 4.47454 38.2373Z" fill="#A59078"/>
<path d="M10.9831 34.1695H7.72884C7.27953 34.1695 6.91528 34.5337 6.91528 34.9831V37.4237C6.91528 37.8731 7.27953 38.2373 7.72884 38.2373H10.9831C11.4324 38.2373 11.7966 37.8731 11.7966 37.4237V34.9831C11.7966 34.5337 11.4324 34.1695 10.9831 34.1695Z" fill="#5F5346"/>
<path d="M10.1694 27.661H6.9152C6.01657 27.661 5.28809 28.3895 5.28809 29.2881V32.5424C5.28809 33.441 6.01657 34.1695 6.9152 34.1695H10.1694C11.0681 34.1695 11.7966 33.441 11.7966 32.5424V29.2881C11.7966 28.3895 11.0681 27.661 10.1694 27.661Z" fill="#7F6E5D"/>
<path d="M10.1694 17.0847H6.9152C6.01657 17.0847 5.28809 17.8132 5.28809 18.7119V21.9661C5.28809 22.8647 6.01657 23.5932 6.9152 23.5932H10.1694C11.0681 23.5932 11.7966 22.8647 11.7966 21.9661V18.7119C11.7966 17.8132 11.0681 17.0847 10.1694 17.0847Z" fill="#7F6E5D"/>
<path d="M15.6138 9.7741L13.706 11.8332C13.0992 12.4882 12.0779 12.5317 11.4175 11.9308L8.99632 9.72691C8.39055 9.12 8.39055 8.13722 8.99632 7.5303L11.1392 5.38739C11.4444 5.0821 11.8584 4.91058 12.29 4.91058C12.7217 4.91058 13.1356 5.0821 13.4408 5.38739L15.5707 7.51729C16.1893 8.13567 16.2084 9.13253 15.6138 9.7741Z" fill="#7F6E5D"/>
<path d="M10.9831 23.5932H7.72884C7.27953 23.5932 6.91528 23.9575 6.91528 24.4068V26.8475C6.91528 27.2968 7.27953 27.661 7.72884 27.661H10.9831C11.4324 27.661 11.7966 27.2968 11.7966 26.8475V24.4068C11.7966 23.9575 11.4324 23.5932 10.9831 23.5932Z" fill="#5F5346"/>
<path d="M25.75 8.13559H22.2517C21.8278 8.14086 21.4686 7.82457 21.4202 7.40339L20.7515 0.894914C20.731 0.663242 20.8095 0.433724 20.9677 0.263183C21.1258 0.0926429 21.3488 -0.00297668 21.5813 -1.65292e-06H26.4187C26.6516 -0.00344158 26.875 0.0919754 27.0335 0.262572C27.192 0.433169 27.2707 0.662956 27.2502 0.894914L26.5815 7.40339C26.5331 7.82457 26.1739 8.14086 25.75 8.13559Z" fill="#7F6E5D"/>
<path d="M7.31298 15.993L9.0304 11.2743C9.1227 11.019 9.33621 10.8266 9.59967 10.7613C9.86312 10.696 10.1418 10.7663 10.3427 10.9489L12.2692 12.7029C12.4807 12.8951 12.5758 13.1842 12.5198 13.4644L11.9275 16.4339C11.8501 16.813 11.5164 17.0852 11.1294 17.0847H8.07691C7.81158 17.0846 7.56301 16.955 7.41089 16.7376C7.25878 16.5202 7.22224 16.2423 7.31298 15.993Z" fill="#5F5346"/>
<path d="M19.829 2.41303L14.4595 4.85371C14.2164 4.96413 14.043 5.18676 13.9955 5.44943C13.9479 5.71211 14.0322 5.98141 14.2211 6.17005L16.3079 8.25683C16.533 8.4819 16.8687 8.55502 17.167 8.44394L20.7735 7.10401C21.1207 6.97478 21.3368 6.62729 21.2991 6.25872L20.9736 3.07282C20.9474 2.81226 20.7973 2.58025 20.5704 2.44947C20.3436 2.31869 20.0676 2.30512 19.829 2.41303Z" fill="#5F5346"/>
<path d="M46.7797 47.1864H37.017C36.5677 47.1864 36.2034 46.8222 36.2034 46.3729V39.0509C36.2034 38.6015 36.5677 38.2373 37.017 38.2373H43.5255C45.772 38.2373 47.5933 40.0585 47.5933 42.3051V46.3729C47.5933 46.8222 47.229 47.1864 46.7797 47.1864Z" fill="#A59078"/>
<path d="M37.0169 38.2373H40.2712C40.7205 38.2373 41.0847 37.8731 41.0847 37.4237V34.9831C41.0847 34.5337 40.7205 34.1695 40.2712 34.1695H37.0169C36.5676 34.1695 36.2034 34.5337 36.2034 34.9831V37.4237C36.2034 37.8731 36.5676 38.2373 37.0169 38.2373Z" fill="#5F5346"/>
<path d="M37.8306 34.1695H41.0848C41.9834 34.1695 42.7119 33.441 42.7119 32.5424V29.2881C42.7119 28.3895 41.9834 27.661 41.0848 27.661H37.8306C36.9319 27.661 36.2034 28.3895 36.2034 29.2881V32.5424C36.2034 33.441 36.9319 34.1695 37.8306 34.1695Z" fill="#7F6E5D"/>
<path d="M37.8306 23.5932H41.0848C41.9834 23.5932 42.7119 22.8647 42.7119 21.9661V18.7119C42.7119 17.8132 41.9834 17.0847 41.0848 17.0847H37.8306C36.9319 17.0847 36.2034 17.8132 36.2034 18.7119V21.9661C36.2034 22.8647 36.9319 23.5932 37.8306 23.5932Z" fill="#7F6E5D"/>
<path d="M32.3862 9.77411L34.294 11.8332C34.9008 12.4882 35.9221 12.5317 36.5825 11.9309L39.0037 9.72692C39.6095 9.12001 39.6095 8.13723 39.0037 7.53031L36.8608 5.38821C36.5556 5.08293 36.1416 4.91141 35.71 4.91141C35.2783 4.91141 34.8644 5.08293 34.5592 5.38821L32.4293 7.51811C31.8112 8.1364 31.7921 9.13265 32.3862 9.77411Z" fill="#7F6E5D"/>
<path d="M37.0169 27.661H40.2712C40.7205 27.661 41.0847 27.2968 41.0847 26.8475V24.4068C41.0847 23.9575 40.7205 23.5932 40.2712 23.5932H37.0169C36.5676 23.5932 36.2034 23.9575 36.2034 24.4068V26.8475C36.2034 27.2968 36.5676 27.661 37.0169 27.661Z" fill="#5F5346"/>
<path d="M40.6869 15.993L38.9695 11.2743C38.8772 11.019 38.6637 10.8266 38.4002 10.7613C38.1368 10.696 37.8581 10.7663 37.6572 10.9489L35.7307 12.7029C35.5193 12.8951 35.4241 13.1842 35.4802 13.4644L36.0724 16.4266C36.1498 16.8057 36.4836 17.0779 36.8705 17.0774H39.923C40.1865 17.0764 40.4332 16.9478 40.5849 16.7324C40.7367 16.517 40.7747 16.2414 40.6869 15.993Z" fill="#5F5346"/>
<path d="M28.171 2.41303L33.5405 4.85371C33.7835 4.96413 33.9569 5.18676 34.0045 5.44943C34.052 5.71211 33.9677 5.98141 33.7788 6.17005L31.6921 8.25683C31.467 8.48191 31.1313 8.55502 30.8329 8.44395L27.2256 7.10157C26.8784 6.97235 26.6623 6.62485 26.7001 6.25629L27.0255 3.07039C27.0523 2.81004 27.2028 2.57851 27.4298 2.44824C27.6568 2.31796 27.9326 2.30486 28.171 2.41303Z" fill="#5F5346"/>
<path d="M24.0001 48C23.5508 48 23.1865 47.6358 23.1865 47.1864V31.7288C23.1865 31.2795 23.5508 30.9153 24.0001 30.9153C24.4494 30.9153 24.8137 31.2795 24.8137 31.7288V47.1864C24.8137 47.6358 24.4494 48 24.0001 48Z" fill="#A5A5A4"/>
<path d="M24.0001 32.5424C23.5508 32.5424 23.1865 32.1781 23.1865 31.7288V11.3898C23.1865 10.9405 23.5508 10.5763 24.0001 10.5763C24.4494 10.5763 24.8137 10.9405 24.8137 11.3898V31.7288C24.8137 32.1781 24.4494 32.5424 24.0001 32.5424Z" fill="#A5A5A4"/>
<path d="M32.9492 43.9322H15.0509C14.6015 43.9322 14.2373 43.568 14.2373 43.1186C14.2373 42.6693 14.6015 42.3051 15.0509 42.3051H32.9492C33.3985 42.3051 33.7627 42.6693 33.7627 43.1186C33.7627 43.568 33.3985 43.9322 32.9492 43.9322Z" fill="#A5A5A4"/>
<path d="M32.9492 21.9661H15.0509C14.6015 21.9661 14.2373 21.6019 14.2373 21.1525C14.2373 20.7032 14.6015 20.339 15.0509 20.339H32.9492C33.3985 20.339 33.7627 20.7032 33.7627 21.1525C33.7627 21.6019 33.3985 21.9661 32.9492 21.9661Z" fill="#A5A5A4"/>
<path d="M23.1865 32.5424H15.0509C14.6015 32.5424 14.2373 32.1781 14.2373 31.7288C14.2373 31.2795 14.6015 30.9153 15.0509 30.9153H23.1865C23.6358 30.9153 24 31.2795 24 31.7288C24 32.1781 23.6358 32.5424 23.1865 32.5424Z" fill="#A5A5A4"/>
<path d="M24.8134 28.4746H32.949V34.9831H24.8134C23.9148 34.9831 23.1863 34.2546 23.1863 33.3559V30.1017C23.1863 29.2031 23.9148 28.4746 24.8134 28.4746Z" fill="#7F8C8D"/>
<path d="M29.6949 32.5424H27.2542C26.8049 32.5424 26.4407 32.1781 26.4407 31.7288C26.4407 31.2795 26.8049 30.9153 27.2542 30.9153H29.6949C30.1442 30.9153 30.5085 31.2795 30.5085 31.7288C30.5085 32.1781 30.1442 32.5424 29.6949 32.5424Z" fill="#393F4A"/>
<path d="M32.9492 48H15.0509C14.6015 48 14.2373 47.6357 14.2373 47.1864V20.339C14.2373 14.9472 18.6082 10.5763 24 10.5763C29.3918 10.5763 33.7627 14.9472 33.7627 20.339V47.1864C33.7627 47.6357 33.3985 48 32.9492 48ZM15.8644 46.3729H32.1356V20.339C32.1356 15.8458 28.4932 12.2034 24 12.2034C19.5069 12.2034 15.8644 15.8458 15.8644 20.339V46.3729Z" fill="#BDC3C7"/>
</svg>
