<svg width="18" height="30" viewBox="0 0 18 30" fill="none" xmlns="http://www.w3.org/2000/svg">
<path d="M17.4971 11.7188V28.125C17.4971 29.213 16.7155 30 15.7513 30H2.25068C1.28646 30 0.504883 29.213 0.504883 28.125V11.7188C0.504883 9.89432 2.06811 8.32031 3.99643 8.32031H5.74223V2.34375H12.2598V8.32031H14.0055C15.9339 8.32031 17.4971 9.89432 17.4971 11.7188Z" fill="#E5E5E5"/>
<path d="M4.15158 30H2.25063C1.28647 30 0.504883 29.213 0.504883 28.125V11.7188C0.504883 9.89432 2.06811 8.32031 3.99643 8.32031H5.74223V2.34375H7.64318V7.14844C7.64318 7.79566 7.12211 8.32031 6.47934 8.32031H5.89738C3.96906 8.32031 2.40584 9.89432 2.40584 11.7188V28.125C2.40584 29.213 3.18742 30 4.15158 30Z" fill="#C8C8C8"/>
<path d="M10.1615 6.44531H7.8418C7.51818 6.44531 7.25586 6.18299 7.25586 5.85938V0.585938C7.25586 0.262324 7.51818 0 7.8418 0H10.1615C10.4851 0 10.7474 0.262324 10.7474 0.585938V5.85938C10.7474 6.18299 10.485 6.44531 10.1615 6.44531Z" fill="#7F787A"/>
<path d="M12.5777 4.58678H5.4248C4.93941 4.58678 4.5459 4.19326 4.5459 3.70787V3.22266C4.5459 2.73727 4.93941 2.34375 5.4248 2.34375H12.5777C13.0631 2.34375 13.4566 2.73727 13.4566 3.22266V3.70787C13.4566 4.19332 13.0631 4.58678 12.5777 4.58678Z" fill="#B4B4B4"/>
<path d="M12.5819 4.58678H7.27912C6.79707 4.58678 6.40625 4.19326 6.40625 3.70787V3.22266C6.40625 2.73727 6.79707 2.34375 7.27912 2.34375H12.5819C13.064 2.34375 13.4548 2.73727 13.4548 3.22266V3.70787C13.4548 4.19326 13.064 4.58678 12.5819 4.58678Z" fill="#C8C8C8"/>
<path d="M17.4971 15.738V18.2458V28.2419C17.4971 29.2128 16.7155 29.9998 15.7513 29.9998H2.25068C1.28646 29.9998 0.504883 29.2128 0.504883 28.2419V18.2458V15.738C0.819766 15.4267 1.25072 15.2341 1.72691 15.2341C2.3343 15.2341 2.86897 15.5466 3.18174 16.0204C3.49445 15.5466 4.02918 15.2341 4.63656 15.2341C5.24395 15.2341 5.77861 15.5466 6.09139 16.0204C6.4041 15.5466 6.93877 15.2341 7.54615 15.2341C8.15354 15.2341 8.6882 15.5466 9.00098 16.0204C9.31369 15.5466 9.84842 15.2341 10.4558 15.2341C11.0632 15.2341 11.5979 15.5466 11.9106 16.0204C12.2233 15.5466 12.758 15.2341 13.3654 15.2341C13.9728 15.2341 14.5074 15.5466 14.8202 16.0204C15.1329 15.5466 15.6677 15.2341 16.275 15.2341C16.7512 15.2341 17.1822 15.4267 17.4971 15.738Z" fill="#45DB77" fill-opacity="0.7"/>
<path d="M2.40584 28.7498C2.40584 29.2438 2.56732 29.6754 2.83357 29.9998H2.25068C1.28646 29.9998 0.504883 29.2128 0.504883 28.2419V18.2458V15.738C0.819766 15.4267 1.25072 15.2341 1.72691 15.2341C1.96791 15.2341 2.19707 15.284 2.40584 15.3729V28.7498ZM10.1066 25.781C9.62459 25.781 9.23377 26.1745 9.23377 26.6599C9.23377 27.1453 9.62459 27.5388 10.1066 27.5388C10.5887 27.5388 10.9795 27.1453 10.9795 26.6599C10.9795 26.1745 10.5887 25.781 10.1066 25.781ZM13.5982 21.0935C12.7947 21.0935 12.1434 21.7493 12.1434 22.5584C12.1434 23.3674 12.7947 24.0232 13.5982 24.0232C14.4017 24.0232 15.053 23.3674 15.053 22.5584C15.053 21.7493 14.4016 21.0935 13.5982 21.0935Z" fill="#36BF6B"/>
<path d="M13.2966 16.9167C12.4111 18.1994 11.2816 19.2924 9.97349 20.1323L9.24236 20.6018C9.09564 20.696 8.90796 20.696 8.76125 20.6018L8.03011 20.1323C6.72201 19.2924 5.5925 18.1994 4.70697 16.9167C4.02142 15.8813 4.15701 14.5026 5.03093 13.6226C6.00048 12.6463 7.5725 12.6463 8.54205 13.6226L8.68543 13.767C8.86015 13.9429 9.14345 13.9429 9.31818 13.767L9.46156 13.6226C10.4311 12.6463 12.0031 12.6463 12.9727 13.6226C13.8467 14.5026 13.9822 15.8813 13.2966 16.9167Z" fill="#FF4040"/>
</svg>
