<svg width="18" height="31" viewBox="0 0 18 31" fill="none" xmlns="http://www.w3.org/2000/svg">
<path d="M17.4971 11.9412V28.3474C17.4971 29.4354 16.7155 30.2224 15.7513 30.2224H2.25068C1.28646 30.2224 0.504883 29.4354 0.504883 28.3474V11.9412C0.504883 10.1167 2.06811 8.54272 3.99643 8.54272H5.74223V2.56616H12.2598V8.54272H14.0055C15.9339 8.54272 17.4971 10.1167 17.4971 11.9412Z" fill="#E5E5E5"/>
<path d="M4.15158 30.2224H2.25063C1.28647 30.2224 0.504883 29.4354 0.504883 28.3474V11.9412C0.504883 10.1167 2.06811 8.54272 3.99643 8.54272H5.74223V2.56616H7.64318V7.37085C7.64318 8.01808 7.12211 8.54272 6.47934 8.54272H5.89738C3.96906 8.54272 2.40584 10.1167 2.40584 11.9412V28.3474C2.40584 29.4354 3.18742 30.2224 4.15158 30.2224Z" fill="#C8C8C8"/>
<path d="M10.1605 6.66773H7.84082C7.51721 6.66773 7.25488 6.4054 7.25488 6.08179V0.80835C7.25488 0.484736 7.51721 0.222412 7.84082 0.222412H10.1605C10.4841 0.222412 10.7464 0.484736 10.7464 0.80835V6.08179C10.7464 6.4054 10.484 6.66773 10.1605 6.66773Z" fill="#7F787A"/>
<path d="M12.5777 4.80919H5.4248C4.93941 4.80919 4.5459 4.41567 4.5459 3.93028V3.44507C4.5459 2.95968 4.93941 2.56616 5.4248 2.56616H12.5777C13.0631 2.56616 13.4566 2.95968 13.4566 3.44507V3.93028C13.4566 4.41573 13.0631 4.80919 12.5777 4.80919Z" fill="#B4B4B4"/>
<path d="M12.5839 4.80919H7.28107C6.79902 4.80919 6.4082 4.41567 6.4082 3.93028V3.44507C6.4082 2.95968 6.79902 2.56616 7.28107 2.56616H12.5839C13.0659 2.56616 13.4567 2.95968 13.4567 3.44507V3.93028C13.4567 4.41567 13.0659 4.80919 12.5839 4.80919Z" fill="#C8C8C8"/>
<path d="M17.4971 15.9607V18.4685V28.4646C17.4971 29.4354 16.7155 30.2224 15.7513 30.2224H2.25068C1.28646 30.2224 0.504883 29.4354 0.504883 28.4646V18.4685V15.9607C0.819766 15.6494 1.25072 15.4568 1.72691 15.4568C2.3343 15.4568 2.86897 15.7693 3.18174 16.2431C3.49445 15.7692 4.02918 15.4568 4.63656 15.4568C5.24395 15.4568 5.77861 15.7693 6.09139 16.2431C6.4041 15.7693 6.93877 15.4568 7.54615 15.4568C8.15354 15.4568 8.6882 15.7693 9.00098 16.2431C9.31369 15.7692 9.84842 15.4568 10.4558 15.4568C11.0632 15.4568 11.5979 15.7693 11.9106 16.2431C12.2233 15.7693 12.758 15.4568 13.3654 15.4568C13.9728 15.4568 14.5074 15.7693 14.8202 16.2431C15.1329 15.7692 15.6677 15.4568 16.275 15.4568C16.7512 15.4568 17.1822 15.6494 17.4971 15.9607Z" fill="#45DB77" fill-opacity="0.7"/>
<path d="M2.40584 28.9724C2.40584 29.4664 2.56732 29.898 2.83357 30.2224H2.25068C1.28646 30.2224 0.504883 29.4354 0.504883 28.4646V18.4685V15.9607C0.819766 15.6494 1.25072 15.4568 1.72691 15.4568C1.96791 15.4568 2.19707 15.5067 2.40584 15.5955V28.9724ZM10.1066 26.0037C9.62459 26.0037 9.23377 26.3972 9.23377 26.8826C9.23377 27.368 9.62459 27.7615 10.1066 27.7615C10.5887 27.7615 10.9795 27.368 10.9795 26.8826C10.9795 26.3972 10.5887 26.0037 10.1066 26.0037ZM13.5982 21.3162C12.7947 21.3162 12.1434 21.972 12.1434 22.781C12.1434 23.59 12.7947 24.2459 13.5982 24.2459C14.4017 24.2459 15.053 23.59 15.053 22.781C15.053 21.972 14.4016 21.3162 13.5982 21.3162Z" fill="#36BF6B"/>
<g clip-path="url(#clip0_601_3)">
<path d="M13.1036 14.6451C13.054 14.5405 12.9486 14.4739 12.8328 14.4739H9.82638L11.6461 11.3944C11.7009 11.3017 11.7017 11.1868 11.6484 11.0933C11.595 10.9999 11.4956 10.9421 11.388 10.9421L8.8194 10.9424C8.71281 10.9425 8.61423 10.9991 8.56053 11.0912L5.18929 16.8701C5.13519 16.9628 5.13479 17.0773 5.18827 17.1704C5.24173 17.2635 5.34086 17.3209 5.4482 17.3209H8.4355L7.56543 20.8013C7.53138 20.9375 7.5964 21.0791 7.7219 21.142C7.76472 21.1634 7.81063 21.1738 7.85609 21.1738C7.94394 21.1738 8.03003 21.1352 8.0885 21.0635L13.0651 14.9631C13.1383 14.8734 13.1533 14.7496 13.1036 14.6451Z" fill="#FFD400"/>
<path d="M13.1037 14.6451C13.0541 14.5405 12.9487 14.4739 12.8329 14.4739H9.82649L11.6462 11.3944C11.701 11.3017 11.7018 11.1868 11.6485 11.0933C11.5951 10.9999 11.4957 10.9421 11.3881 10.9421L9.14062 10.9424V19.7739L13.0652 14.9631C13.1384 14.8734 13.1534 14.7496 13.1037 14.6451Z" fill="#FF9F04"/>
</g>
<defs>
<clipPath id="clip0_601_3">
<rect width="10.2316" height="10.2316" fill="white" transform="translate(4.02441 10.9421)"/>
</clipPath>
</defs>
</svg>
