<svg width="21" height="21" viewBox="0 0 21 21" fill="none" xmlns="http://www.w3.org/2000/svg">
<g clip-path="url(#clip0_83_504)">
<path d="M18.6341 7.60007C18.5322 7.38556 18.3158 7.24873 18.0783 7.24873H11.9077L15.6426 0.928224C15.7549 0.738035 15.7567 0.502113 15.6472 0.310283C15.5377 0.118453 15.3337 0 15.1128 0L9.84089 0.000574219C9.62212 0.00065625 9.41979 0.116812 9.30958 0.305853L2.39024 12.1668C2.27921 12.3571 2.27839 12.5922 2.38815 12.7833C2.49787 12.9742 2.70134 13.0921 2.92164 13.0921H9.05294L7.26716 20.2355C7.19727 20.515 7.33074 20.8056 7.58832 20.9348C7.67621 20.9788 7.77043 21 7.86374 21C8.04404 21 8.22074 20.9208 8.34075 20.7736L18.555 8.25288C18.7052 8.0688 18.736 7.81466 18.6341 7.60007Z" fill="#FFD400"/>
<path d="M18.6341 7.60007C18.5322 7.38556 18.3159 7.24873 18.0783 7.24873H11.9077L15.6426 0.928225C15.755 0.738035 15.7567 0.502113 15.6472 0.310283C15.5377 0.118453 15.3338 0 15.1128 0L10.5 0.000492188V18.1269L18.5551 8.25292C18.7052 8.0688 18.736 7.81467 18.6341 7.60007Z" fill="#FF9F04"/>
</g>
<defs>
<clipPath id="clip0_83_504">
<rect width="21" height="21" fill="white"/>
</clipPath>
</defs>
</svg>
