<svg width="44" height="44" viewBox="0 0 44 44" fill="none" xmlns="http://www.w3.org/2000/svg">
<g clip-path="url(#clip0_167_540)">
<path fill-rule="evenodd" clip-rule="evenodd" d="M25.4617 21.8912C26.6161 21.8257 27.6734 21.2243 28.3197 20.2655C28.8751 20.8367 29.6385 21.1581 30.4353 21.1563C31.6637 21.1533 32.7638 20.3953 33.2042 19.2485C34.1759 19.7616 35.3269 19.8105 36.3387 19.3816C37.3505 18.9527 38.1157 18.0916 38.4227 17.0364C39.7195 17.693 41.2807 17.5297 42.4136 16.619C43.5465 15.7082 44.0414 14.2187 43.6788 12.811C43.3162 11.4034 42.1632 10.3383 40.7313 10.0882C40.7936 9.82295 40.8259 9.55155 40.8278 9.27909C40.8278 7.22921 39.1661 5.56746 37.1162 5.56746C36.5597 5.56865 36.011 5.6982 35.5128 5.94605C35.1179 4.12357 33.7755 2.65314 31.9964 2.0944C30.2173 1.53565 28.2752 1.97452 26.9092 3.24398C26.0328 1.48392 24.2359 0.371338 22.2697 0.371338C20.3035 0.371338 18.5066 1.48392 17.6302 3.24398C16.2642 1.97452 14.3221 1.53565 12.543 2.0944C10.764 2.65314 9.4215 4.12357 9.02662 5.94605C8.52838 5.6982 7.97967 5.56865 7.42319 5.56746C5.37332 5.56746 3.71157 7.22921 3.71157 9.27909C3.71348 9.55155 3.74585 9.82295 3.80807 10.0882C2.36904 10.3317 1.20711 11.3975 0.840561 12.8102C0.47401 14.2229 0.971167 15.7192 2.11028 16.6316C3.24939 17.544 4.8181 17.7025 6.1167 17.0364C6.42368 18.0916 7.18892 18.9527 8.20069 19.3816C9.21247 19.8105 10.3635 19.7616 11.3352 19.2485C11.7756 20.3953 12.8757 21.1533 14.1041 21.1563C14.9009 21.1581 15.6643 20.8367 16.2198 20.2655C16.866 21.2243 17.9233 21.8257 19.0777 21.8912H25.4617Z" fill="#95A5A5"/>
<path fill-rule="evenodd" clip-rule="evenodd" d="M16.3031 41.2823C16.1598 41.3988 19.3006 37.7845 19.3006 27.8373C19.3006 19.8276 18.2762 16.4203 17.9273 15.4924H26.6125C26.2636 16.4203 25.2392 19.8276 25.2392 27.8373C25.2392 37.4556 28.1773 41.1554 28.2404 41.2816L16.3031 41.2823Z" fill="#FFAF41"/>
<path fill-rule="evenodd" clip-rule="evenodd" d="M22.27 16.7024C19.684 16.7838 17.1163 16.2428 14.7829 15.1249C14.4242 14.9259 14.2948 14.4737 14.4938 14.115C14.6929 13.7563 15.145 13.6268 15.5037 13.8258C17.6186 14.8145 19.9366 15.2913 22.27 15.2177C24.6035 15.2913 26.9214 14.8145 29.0363 13.8258C29.3951 13.6268 29.8472 13.7563 30.0463 14.115C30.2453 14.4737 30.1159 14.9259 29.7571 15.1249C27.4238 16.2428 24.8561 16.7838 22.27 16.7024Z" fill="#7F8C8D"/>
<path fill-rule="evenodd" clip-rule="evenodd" d="M5.93838 42.8191C5.91222 41.1643 7.20684 39.7888 8.86017 39.7147C9.23394 39.7078 9.60551 39.7733 9.95436 39.9077C10.3265 39.133 11.017 38.5584 11.8463 38.3333C12.6757 38.1081 13.562 38.2547 14.2747 38.7348C14.6112 37.7661 15.425 37.0405 16.4258 36.8167C17.4266 36.593 18.4719 36.903 19.1889 37.6362C19.8815 36.6147 21.0354 36.0029 22.2695 36.0029C23.5037 36.0029 24.6576 36.6147 25.3502 37.6362C26.0672 36.903 27.1125 36.593 28.1133 36.8167C29.1141 37.0405 29.9279 37.7661 30.2644 38.7348C30.9771 38.2547 31.8634 38.1081 32.6928 38.3333C33.5221 38.5584 34.2126 39.133 34.5847 39.9077C34.9336 39.7733 35.3051 39.7078 35.6789 39.7147C37.3322 39.7888 38.6269 41.1643 38.6007 42.8191C38.6007 43.1544 38.3288 43.4263 37.9935 43.4263H6.5456C6.21024 43.4263 5.93838 43.1544 5.93838 42.8191Z" fill="#FF9700"/>
<path fill-rule="evenodd" clip-rule="evenodd" d="M33.4045 27.4662C33.4045 29.8193 27.7703 30.5097 25.3503 30.6953H25.3355C24.3704 30.7695 23.3312 30.8066 22.2696 30.8066C21.2081 30.8066 20.1763 30.7695 19.2113 30.6953H19.189C16.769 30.5097 11.1348 29.8193 11.1348 27.4662C11.1348 25.1724 16.5018 24.4598 19.2261 24.2445C19.2484 24.7121 19.2632 25.2095 19.2781 25.7217C14.9206 26.0558 12.7605 27.0134 12.6194 27.481C12.7233 27.7928 14.4975 28.8395 19.2781 29.2106H19.3078C21.2796 29.3591 23.2597 29.3591 25.2315 29.2106H25.2612C30.0418 28.8395 31.816 27.7928 31.9199 27.4513C31.7788 27.0134 29.6187 26.0558 25.2612 25.7217C25.2761 25.2095 25.2909 24.7121 25.3132 24.2371C28.1563 24.4523 33.4045 25.1724 33.4045 27.4662Z" fill="#FF9700"/>
</g>
<defs>
<clipPath id="clip0_167_540">
<rect width="43.7972" height="43.7972" fill="white"/>
</clipPath>
</defs>
</svg>
