<svg width="50" height="49" viewBox="0 0 50 49" fill="none" xmlns="http://www.w3.org/2000/svg">
<path d="M26.0101 0.169341C29.1201 2.6337 36.813 10.278 35.0186 24.5295C35.0186 24.5295 37.0231 23.3336 38.8052 21.1205C39.2168 20.6098 40.043 20.8061 40.1824 21.4468C40.4923 22.8719 40.8677 25.1542 40.9297 28.041C41.1178 36.7631 34.241 44.2485 25.517 44.2638C17.0578 44.2788 10.1533 37.3627 10.1533 28.8709C10.1533 21.5126 13.7153 17.6718 15.0869 11.3419C15.1998 10.8204 15.7987 10.5707 16.2574 10.8436C17.2982 11.4623 18.9438 12.6212 20.0205 14.268C20.0205 14.268 24.3985 8.72206 24.7413 0.765243C24.769 0.122237 25.5058 -0.230668 26.0101 0.169341Z" fill="#FF8E2A"/>
<path d="M33.8566 28.7975C32.6281 30.6413 31.0711 31.0603 31.0711 31.0603C31.7014 23.4961 28.8082 17.9453 27.6168 16.0159C27.4482 15.7426 27.0295 15.8148 26.9615 16.1288C25.8721 21.1824 22.9472 23.9888 22.9472 23.9888C21.9954 22.8788 21.0907 22.4243 20.62 22.2486C20.435 22.1798 20.2372 22.2814 20.1684 22.4665C18.9669 25.6886 16.6962 28.1762 16.1795 31.8802C15.4192 37.3304 19.3792 42.4961 24.8691 42.8774C30.4064 43.2621 35.0177 38.8837 35.0177 33.4286C35.0177 31.2342 34.7261 29.7269 34.503 28.8954C34.4226 28.5952 34.0285 28.5392 33.8566 28.7975Z" fill="#FFDD6B"/>
<path d="M25.7742 27.9573C25.6602 27.6705 25.2957 27.5916 25.0878 27.8197C23.8463 29.1831 20.5098 33.1735 20.5098 36.6872C20.5098 39.4686 22.7648 41.7236 25.5465 41.7236C28.3279 41.7236 30.5829 39.4686 30.5829 36.6872C30.5829 34.0426 27.3312 31.8744 25.7742 27.9573Z" fill="white"/>
<path d="M25.3858 44.2566C23.7443 44.1336 9.62695 41.501 14.4947 23.7399C16.3112 17.1128 16.6294 11.0731 16.6294 11.0731C16.4996 10.9908 16.3736 10.9127 16.2574 10.8435C15.7987 10.5706 15.1998 10.8203 15.0869 11.3418C13.7153 17.6713 10.1533 21.5125 10.1533 28.8708C10.1533 37.3181 16.9591 44.1703 25.3858 44.2566Z" fill="#FF6C2D"/>
</svg>
