<svg width="26" height="24" viewBox="0 0 26 24" fill="none" xmlns="http://www.w3.org/2000/svg">
<path d="M13.2716 7.55425C13.2716 3.88931 10.3007 0.918457 6.63579 0.918457C2.97136 0.918508 0 3.88931 0 7.55425C0 10.7437 2.25052 13.4073 5.24971 14.0448V17.3407C5.24971 17.4838 5.13388 17.5991 4.99129 17.5991H4.46804C3.70216 17.5991 3.08146 18.2198 3.08146 18.9857C3.08146 19.3684 3.23664 19.7154 3.48776 19.966C3.73836 20.2171 4.08484 20.3723 4.46809 20.3723H4.99129C5.13388 20.3723 5.24971 20.4876 5.24971 20.6308V21.6944C5.24971 22.4603 5.87041 23.081 6.63579 23.081C7.01848 23.081 7.36552 22.9258 7.61612 22.6747C7.86723 22.4241 8.02242 22.0776 8.02242 21.6944V20.6307C8.02242 20.4876 8.13825 20.3723 8.28085 20.3723H8.80405C9.56993 20.3723 10.1906 19.7516 10.1906 18.9857C10.1906 18.603 10.0354 18.2559 9.78433 18.0053C9.53372 17.7542 9.18668 17.599 8.804 17.599H8.2808C8.1382 17.599 8.02237 17.4837 8.02237 17.3406V14.0448C11.0215 13.4073 13.2716 10.7437 13.2716 7.55425ZM6.63579 11.5699C4.41827 11.5699 2.62067 9.77232 2.62067 7.5543C2.62067 5.33678 4.41827 3.53918 6.63579 3.53918C8.85381 3.53918 10.6514 5.33678 10.6514 7.5543C10.6514 9.77232 8.85381 11.5699 6.63579 11.5699Z" fill="#FE7AB6"/>
<path d="M7.20615 20.4024C7.06356 20.4024 6.94773 20.5423 6.94773 20.6855V21.6946C6.94773 22.0778 6.79254 22.4243 6.54143 22.6749C6.41559 22.8007 6.26568 22.903 6.09897 22.9732C6.26411 23.0429 6.4455 23.0812 6.63578 23.0812C7.01846 23.0812 7.3655 22.926 7.61611 22.6749C7.86722 22.4243 8.02241 22.0778 8.02241 21.6946V20.6309C8.02241 20.5313 8.07852 20.4453 8.16028 20.4024C8.01347 20.3913 7.20615 20.4024 7.20615 20.4024Z" fill="#FE5CA7"/>
<path d="M9.78433 18.0054C9.53373 17.7543 9.18669 17.5991 8.804 17.5991H8.2808C8.13806 17.5991 8.02238 17.4833 8.02238 17.3406V14.0278C8.02238 14.0278 7.82636 14.0519 7.58134 14.0674C7.22481 14.09 6.94769 14.3872 6.94769 14.7444V18.2318C6.94769 18.3735 7.0619 18.4902 7.20373 18.4902C7.42031 18.4902 7.63659 18.4812 7.85333 18.4812C8.0661 18.4812 8.27948 18.4655 8.49175 18.4882C9.07263 18.5501 9.40693 18.9858 9.28988 19.5645C9.22706 19.8751 9.04932 20.1958 8.75109 20.3334C8.71701 20.3491 8.68187 20.3622 8.64622 20.3722H8.77607C9.53429 20.3722 10.1735 19.7751 10.1903 19.0171C10.1991 18.6221 10.0423 18.2628 9.78433 18.0054Z" fill="#FE5CA7"/>
<path d="M20.7503 9.95471V6.13301C21.2577 6.35371 21.8701 6.25727 22.2847 5.84259C22.5558 5.57157 22.691 5.21717 22.691 4.86226C22.691 4.50735 22.5558 4.15244 22.2847 3.88193L19.8901 1.48724C19.5996 1.19631 19.1283 1.19631 18.8379 1.48724L16.4432 3.88193C15.9017 4.42295 15.9017 5.30101 16.4432 5.84259C16.7137 6.1131 17.0681 6.24833 17.423 6.24833C17.6123 6.24833 17.801 6.20954 17.9776 6.13301V9.95471C14.9785 10.5922 12.7285 13.2558 12.7285 16.4453C12.7285 20.1102 15.6993 23.081 19.3643 23.081C23.0287 23.081 26.0001 20.1102 26.0001 16.4453C26 13.2558 23.7495 10.5922 20.7503 9.95471ZM19.3642 20.4604C17.1462 20.4604 15.3486 18.6628 15.3486 16.4453C15.3486 14.2273 17.1462 12.4297 19.3642 12.4297C21.5817 12.4297 23.3793 14.2273 23.3793 16.4453C23.3793 18.6628 21.5817 20.4604 19.3642 20.4604Z" fill="#62DBFB"/>
<path d="M20.0641 3.0222C19.6101 2.56771 19.0915 2.14135 18.6375 1.68737L18.8379 1.48724C19.1283 1.19631 19.5996 1.19631 19.8901 1.48724L22.2847 3.88193C22.5558 4.15244 22.691 4.50735 22.691 4.86226C22.691 5.21717 22.5558 5.57157 22.2847 5.84259C21.8701 6.25727 21.2577 6.35371 20.7503 6.13301V9.93846C20.599 9.91825 20.4453 9.90281 20.2892 9.8923C19.9595 9.8701 19.7018 9.59954 19.7018 9.26911V5.98234C19.7018 5.6578 19.9397 5.37901 20.2615 5.33646C20.7369 5.27359 21.1602 4.77867 21.0921 4.21993C21.057 3.92794 20.7938 3.763 20.5883 3.55957C20.4132 3.38549 20.2392 3.19674 20.0641 3.0222Z" fill="#01D0FB"/>
<path d="M21.5786 10.1885C23.6498 11.3108 25.0564 13.5037 25.0564 16.0253C25.0564 19.6903 22.085 22.6611 18.4206 22.6611C17.6437 22.6611 16.8977 22.5275 16.2047 22.2821C17.1441 22.7916 18.2204 23.081 19.3642 23.081C23.0286 23.081 26 20.1102 26 16.4452C26 13.5572 24.1542 11.1001 21.5786 10.1885Z" fill="#01D0FB"/>
<path d="M6.63579 0.918457C5.54435 0.918457 4.5142 1.18216 3.60623 1.64925C4.23165 1.45369 4.89745 1.34832 5.58731 1.34832C9.25224 1.34832 12.2231 4.31918 12.2231 7.98411C12.2231 10.5565 10.7594 12.7872 8.61951 13.888C11.3151 13.0451 13.2716 10.5282 13.2716 7.55425C13.2716 3.88926 10.3007 0.918457 6.63579 0.918457Z" fill="#FE5CA7"/>
</svg>
