<svg width="25" height="25" viewBox="0 0 25 25" fill="none" xmlns="http://www.w3.org/2000/svg">
<path d="M10.3516 18.9274V20.5047C10.3516 22.3028 8.10547 23.6593 5.17578 23.6593C2.24609 23.6593 0 22.3028 0 20.5047V18.9274H10.3516Z" fill="#FEA832"/>
<path d="M10.3516 18.9274V20.5047C10.3516 22.3028 8.10547 23.6593 5.17578 23.6593V18.9274H10.3516Z" fill="#FE9923"/>
<path d="M10.3516 17.3502V18.9274C10.3516 20.7256 8.10547 22.082 5.17578 22.082C2.24609 22.082 0 20.7256 0 18.9274V17.3502H10.3516Z" fill="#FEA832"/>
<path d="M10.3516 17.3502V18.9274C10.3516 20.7256 8.10547 22.082 5.17578 22.082V17.3502H10.3516Z" fill="#FE9923"/>
<path d="M10.3516 17.3502V18.9274C10.3516 20.7256 8.10547 22.082 5.17578 22.082C2.24609 22.082 0 20.7256 0 18.9274V17.3502H10.3516Z" fill="#FEDB41"/>
<path d="M10.3516 17.3502V18.9274C10.3516 20.7256 8.10547 22.082 5.17578 22.082V17.3502H10.3516Z" fill="#FFCC33"/>
<path d="M10.3516 15.7729V17.3502C10.3516 19.1483 8.10547 20.5047 5.17578 20.5047C2.24609 20.5047 0 19.1483 0 17.3502V15.7729H10.3516Z" fill="#FEA832"/>
<path d="M10.3516 15.7729V17.3502C10.3516 19.1483 8.10547 20.5047 5.17578 20.5047V15.7729H10.3516Z" fill="#FE9923"/>
<path d="M10.3516 14.1956V15.7729C10.3516 17.571 8.10547 18.9275 5.17578 18.9275C2.24609 18.9275 0 17.571 0 15.7729V14.1956H10.3516Z" fill="#FEDB41"/>
<path d="M10.3516 14.1956V15.7729C10.3516 17.571 8.10547 18.9275 5.17578 18.9275V14.1956H10.3516Z" fill="#FFCC33"/>
<path d="M10.3516 12.6183V14.1956C10.3516 15.9937 8.10547 17.3502 5.17578 17.3502C2.24609 17.3502 0 15.9937 0 14.1956V12.6183H10.3516Z" fill="#FEA832"/>
<path d="M10.3516 12.6183V14.1956C10.3516 15.9937 8.10547 17.3502 5.17578 17.3502V12.6183H10.3516Z" fill="#FE9923"/>
<path d="M10.3516 11.0411V12.6184C10.3516 14.4165 8.10547 15.7729 5.17578 15.7729C2.24609 15.7729 0 14.4165 0 12.6184V11.0411H10.3516Z" fill="#FEDB41"/>
<path d="M10.3516 11.0411V12.6184C10.3516 14.4165 8.10547 15.7729 5.17578 15.7729V11.0411H10.3516Z" fill="#FFCC33"/>
<path d="M10.3516 9.46368V11.041C10.3516 12.8391 8.10547 14.1956 5.17578 14.1956C2.24609 14.1956 0 12.8391 0 11.041V9.46368H10.3516Z" fill="#FEA832"/>
<path d="M10.3516 9.46368V11.041C10.3516 12.8391 8.10547 14.1956 5.17578 14.1956V9.46368H10.3516Z" fill="#FE9923"/>
<path d="M10.3516 7.88647V9.46376C10.3516 11.2619 8.10547 12.6183 5.17578 12.6183C2.24609 12.6183 0 11.2619 0 9.46376V7.88647H10.3516Z" fill="#FEDB41"/>
<path d="M10.3516 7.88647V9.46376C10.3516 11.2619 8.10547 12.6183 5.17578 12.6183V7.88647H10.3516Z" fill="#FFCC33"/>
<path d="M10.3516 6.30914V7.88643C10.3516 9.68454 8.10547 11.041 5.17578 11.041C2.24609 11.041 0 9.68454 0 7.88643V6.30914H10.3516Z" fill="#FEA832"/>
<path d="M10.3516 6.30914V7.88643C10.3516 9.68454 8.10547 11.041 5.17578 11.041V6.30914H10.3516Z" fill="#FE9923"/>
<path d="M10.3516 4.73181V6.3091C10.3516 8.10721 8.10547 9.46367 5.17578 9.46367C2.24609 9.46367 0 8.10721 0 6.3091V4.73181H10.3516Z" fill="#FEDB41"/>
<path d="M10.3516 4.73181V6.3091C10.3516 8.10721 8.10547 9.46367 5.17578 9.46367V4.73181H10.3516Z" fill="#FFCC33"/>
<path d="M10.3516 3.15454V4.73183C10.3516 6.52994 8.10547 7.8864 5.17578 7.8864C2.24609 7.8864 0 6.52994 0 4.73183V3.15454H10.3516Z" fill="#FEA832"/>
<path d="M10.3516 3.15454V4.73183C10.3516 6.52994 8.10547 7.8864 5.17578 7.8864V3.15454H10.3516Z" fill="#FE9923"/>
<path d="M5.17578 0C2.24609 0 0 1.35647 0 3.15458C0 4.95268 2.24609 6.30915 5.17578 6.30915C8.10547 6.30915 10.3516 4.95268 10.3516 3.15458C10.3516 1.35647 8.10547 0 5.17578 0Z" fill="#FEDB41"/>
<path d="M10.3516 3.15458C10.3516 4.95268 8.10547 6.30915 5.17578 6.30915V0C8.10547 0 10.3516 1.35647 10.3516 3.15458Z" fill="#FFCC33"/>
<path d="M20.6055 18.9274V20.5047C20.6055 22.3028 18.4082 23.6593 15.4785 23.6593C12.5488 23.6593 10.3516 22.3028 10.3516 20.5047V18.9274H20.6055Z" fill="#FEA832"/>
<path d="M20.6055 18.9274V20.5047C20.6055 22.3028 18.4082 23.6593 15.4785 23.6593V18.9274H20.6055Z" fill="#FE9923"/>
<path d="M20.6055 17.3502V18.9274C20.6055 20.7256 18.4082 22.082 15.4785 22.082C12.5488 22.082 10.3516 20.7256 10.3516 18.9274V17.3502H20.6055Z" fill="#FEDB41"/>
<path d="M20.6055 17.3502V18.9274C20.6055 20.7256 18.4082 22.082 15.4785 22.082V17.3502H20.6055Z" fill="#FFCC33"/>
<path d="M20.6055 15.7729V17.3502C20.6055 19.1483 18.4082 20.5047 15.4785 20.5047C12.5488 20.5047 10.3516 19.1483 10.3516 17.3502V15.7729H20.6055Z" fill="#FEA832"/>
<path d="M20.6055 15.7729V17.3502C20.6055 19.1483 18.4082 20.5047 15.4785 20.5047V15.7729H20.6055Z" fill="#FE9923"/>
<path d="M20.6055 14.1956V15.7729C20.6055 17.571 18.4082 18.9275 15.4785 18.9275C12.5488 18.9275 10.3516 17.571 10.3516 15.7729V14.1956H20.6055Z" fill="#FEDB41"/>
<path d="M20.6055 14.1956V15.7729C20.6055 17.571 18.4082 18.9275 15.4785 18.9275V14.1956H20.6055Z" fill="#FFCC33"/>
<path d="M20.6055 12.6183V14.1956C20.6055 15.9937 18.4082 17.3502 15.4785 17.3502C12.5488 17.3502 10.3516 15.9937 10.3516 14.1956V12.6183H20.6055Z" fill="#FEA832"/>
<path d="M20.6055 12.6183V14.1956C20.6055 15.9937 18.4082 17.3502 15.4785 17.3502V12.6183H20.6055Z" fill="#FE9923"/>
<path d="M20.6055 11.0411V12.6184C20.6055 14.4165 18.4082 15.7729 15.4785 15.7729C12.5488 15.7729 10.3516 14.4165 10.3516 12.6184V11.0411H20.6055Z" fill="#FEDB41"/>
<path d="M20.6055 11.0411V12.6184C20.6055 14.4165 18.4082 15.7729 15.4785 15.7729V11.0411H20.6055Z" fill="#FFCC33"/>
<path d="M20.6055 9.46368V11.041C20.6055 12.8391 18.4082 14.1956 15.4785 14.1956C12.5488 14.1956 10.3516 12.8391 10.3516 11.041V9.46368H20.6055Z" fill="#FEA832"/>
<path d="M20.6055 9.46368V11.041C20.6055 12.8391 18.4082 14.1956 15.4785 14.1956V9.46368H20.6055Z" fill="#FE9923"/>
<path d="M20.6055 7.88647V9.46376C20.6055 11.2619 18.4082 12.6183 15.4785 12.6183C12.5488 12.6183 10.3516 11.2619 10.3516 9.46376V7.88647H20.6055Z" fill="#FEDB41"/>
<path d="M20.6055 7.88647V9.46376C20.6055 11.2619 18.4082 12.6183 15.4785 12.6183V7.88647H20.6055Z" fill="#FFCC33"/>
<path d="M20.6055 6.30914V7.88643C20.6055 9.68454 18.4082 11.041 15.4785 11.041C12.5488 11.041 10.3516 9.68454 10.3516 7.88643V6.30914H20.6055Z" fill="#FEA832"/>
<path d="M20.6055 6.30914V7.88643C20.6055 9.68454 18.4082 11.041 15.4785 11.041V6.30914H20.6055Z" fill="#FE9923"/>
<path d="M15.4785 3.15454C12.5488 3.15454 10.3516 4.51101 10.3516 6.30911C10.3516 8.10722 12.5488 9.46368 15.4785 9.46368C18.4082 9.46368 20.6055 8.10722 20.6055 6.30911C20.6055 4.51101 18.4082 3.15454 15.4785 3.15454Z" fill="#FEDB41"/>
<path d="M20.6055 6.30911C20.6055 8.10722 18.4082 9.46368 15.4785 9.46368V3.15454C18.4082 3.15454 20.6055 4.51101 20.6055 6.30911Z" fill="#FFCC33"/>
<path d="M19.1406 12.3817C15.9033 12.3817 13.2812 15.2051 13.2812 18.6909C13.2812 22.1767 15.9033 25 19.1406 25C22.378 25 25 22.1767 25 18.6909C25 15.2051 22.378 12.3817 19.1406 12.3817Z" fill="#FEA832"/>
<path d="M25 18.6909C25 22.1767 22.378 25 19.1406 25V12.3817C22.378 12.3817 25 15.2051 25 18.6909Z" fill="#FE9923"/>
<path d="M19.1406 13.959C16.7236 13.959 14.7461 16.0884 14.7461 18.6909C14.7461 21.2934 16.7236 23.4227 19.1406 23.4227C21.5577 23.4227 23.5352 21.2934 23.5352 18.6909C23.5352 16.0884 21.5577 13.959 19.1406 13.959Z" fill="#FEDB41"/>
<path d="M23.5352 18.6909C23.5352 21.2934 21.5577 23.4227 19.1406 23.4227V13.959C21.5577 13.959 23.5352 16.0884 23.5352 18.6909Z" fill="#FFCC33"/>
</svg>
