<svg width="25" height="25" viewBox="0 0 25 25" fill="none" xmlns="http://www.w3.org/2000/svg">
<g clip-path="url(#clip0_83_500)">
<path d="M18.4058 1.39191H18.3619C15.1379 1.39191 13.3355 3.75128 12.5002 5.3486C11.6502 3.75123 9.86236 1.39191 6.63839 1.39191H6.57984C3.092 1.42125 0.185166 4.39606 0.00933563 8.16227C-0.210537 12.7784 3.47306 15.8851 8.98307 20.5746C9.93566 21.3952 10.9468 22.2599 12.0166 23.1831L12.5002 23.6081L12.9838 23.1831C14.0389 22.2599 15.0648 21.3952 16.0173 20.5746C21.5273 15.8851 25.2106 12.7784 24.9907 8.16227C24.8148 4.39601 21.8936 1.4212 18.4058 1.39191Z" fill="#FF3636"/>
<path d="M24.9905 8.16227C25.2104 12.7784 21.5271 15.8851 16.0171 20.5746C15.0645 21.3952 14.0387 22.2599 12.9836 23.1831L12.5 23.6081V5.3486C13.3353 3.75123 15.1378 1.39191 18.3618 1.39191H18.4057C21.8935 1.4212 24.8146 4.39601 24.9905 8.16227Z" fill="#F40000"/>
</g>
<defs>
<clipPath id="clip0_83_500">
<rect width="25" height="25" fill="white"/>
</clipPath>
</defs>
</svg>
