<svg width="24" height="24" viewBox="0 0 24 24" fill="none" xmlns="http://www.w3.org/2000/svg">
<path d="M19.8151 13.6155V12H24V2.95693C24 1.32387 22.6761 0 21.0431 0H12V12H16.1849V13.6155C16.1849 14.6179 16.9976 15.4305 18 15.4305C19.0025 15.4306 19.8151 14.6179 19.8151 13.6155Z" fill="#B2540F"/>
<path d="M13.6155 4.18493H12V0H2.95693C1.32387 0 0 1.32387 0 2.95693V12H12V7.81506H13.6155C14.6179 7.81506 15.4305 7.00239 15.4305 6C15.4306 4.99753 14.6179 4.18493 13.6155 4.18493Z" fill="#F4A360"/>
<path d="M10.3845 19.8151H12V24H21.0431C22.6761 24 24 22.6761 24 21.0431V12H12V16.1849H10.3845C9.38206 16.1849 8.56946 16.9976 8.56946 18C8.56939 19.0025 9.38206 19.8151 10.3845 19.8151Z" fill="#773600"/>
<path d="M4.18493 10.3844V11.9999H0V21.043C0 22.676 1.32387 23.9999 2.95693 23.9999H12V11.9999H7.81507V10.3844C7.81507 9.38194 7.0024 8.56934 6 8.56934C4.99753 8.56927 4.18493 9.38194 4.18493 10.3844Z" fill="#FFDBA9"/>
<path d="M10.3845 19.815H12V16.1848H10.3845C9.38206 16.1848 8.56946 16.9975 8.56946 17.9999C8.56939 19.0024 9.38206 19.815 10.3845 19.815Z" fill="#91410A"/>
<path d="M13.6155 4.18506H12V7.81524H13.6155C14.6179 7.81524 15.4305 7.00258 15.4305 6.00018C15.4306 4.99766 14.6179 4.18506 13.6155 4.18506Z" fill="#EA8C3F"/>
</svg>
