<svg width="28" height="26" viewBox="0 0 28 26" fill="none" xmlns="http://www.w3.org/2000/svg">
<path d="M17.8997 7.3692V17.9904H10.1531V7.3692C10.1531 5.38278 11.8877 3.77246 14.0258 3.77246H14.0263C16.1666 3.77306 17.8997 5.38239 17.8997 7.3692Z" fill="#00EE8A"/>
<path d="M17.8997 7.3692V17.9904H14.0263V3.77246C16.1666 3.77306 17.8997 5.38239 17.8997 7.3692Z" fill="#00DD80"/>
<path d="M20.3784 10.146C20.3784 11.4167 19.2688 12.4472 17.8997 12.4472C16.5312 12.4472 15.4217 11.4167 15.4217 10.146C15.4217 8.87523 16.5312 7.84473 17.8997 7.84473C19.2688 7.84473 20.3784 8.87523 20.3784 10.146Z" fill="#FFDA44"/>
<path d="M20.3784 10.146C20.3784 11.4167 19.2688 12.4472 17.8997 12.4472V7.84473C19.2688 7.84473 20.3784 8.87523 20.3784 10.146Z" fill="#EEBF00"/>
<path d="M12.6317 10.146C12.6317 11.4167 11.5222 12.4472 10.1535 12.4472C8.78439 12.4472 7.67548 11.4167 7.67548 10.146C7.67548 8.87523 8.78439 7.84473 10.1535 7.84473C11.5222 7.84473 12.6317 8.87523 12.6317 10.146Z" fill="#FFDA44"/>
<path d="M12.6317 10.146C12.6317 11.4167 11.5222 12.4472 10.1535 12.4472V7.84473C11.5222 7.84473 12.6317 8.87523 12.6317 10.146Z" fill="#EEBF00"/>
<path d="M21.7731 15.4732V26.0002H6.27966V15.4216C6.27966 13.4352 8.0145 11.8243 10.1531 11.8243C11.6914 11.8243 13.019 12.6568 13.6441 13.8634C13.7165 14.0031 13.8703 14.0826 14.0263 14.0826C14.1882 14.0826 14.3386 13.9989 14.4091 13.8634C15.0365 12.6522 16.3727 11.8175 17.9185 11.8243C20.0592 11.8338 21.7731 13.4848 21.7731 15.4732Z" fill="#FFDA44"/>
<path d="M21.7731 15.4732V26.0002H14.0263V14.0826C14.1882 14.0826 14.3386 13.9989 14.4091 13.8634C15.0365 12.6522 16.3727 11.8175 17.9185 11.8243C20.0592 11.8338 21.7731 13.4848 21.7731 15.4732Z" fill="#EEBF00"/>
<path d="M24.2511 17.9901C24.2511 19.261 23.1416 20.2913 21.7731 20.2913C20.4046 20.2913 19.2949 19.261 19.2949 17.9901C19.2949 16.7188 20.4046 15.6885 21.7731 15.6885C23.1416 15.6885 24.2511 16.7188 24.2511 17.9901Z" fill="#FF6C6C"/>
<path d="M24.2511 17.9901C24.2511 19.261 23.1416 20.2913 21.7731 20.2913V15.6885C23.1416 15.6885 24.2511 16.7188 24.2511 17.9901Z" fill="#FF4A4A"/>
<path d="M16.5052 17.9901C16.5052 19.261 15.3954 20.2913 14.0269 20.2913C12.6578 20.2913 11.5482 19.261 11.5482 17.9901C11.5482 16.7188 12.6578 15.6885 14.0269 15.6885C15.3954 15.6885 16.5052 16.7188 16.5052 17.9901Z" fill="#FF6C6C"/>
<path d="M16.5052 17.9901C16.5052 19.261 15.3954 20.2913 14.0269 20.2913V15.6885C15.3954 15.6885 16.5052 16.7188 16.5052 17.9901Z" fill="#FF4A4A"/>
<path d="M8.75833 17.9901C8.75833 19.261 7.64877 20.2913 6.28009 20.2913C4.91162 20.2913 3.80206 19.261 3.80206 17.9901C3.80206 16.7188 4.91162 15.6885 6.28009 15.6885C7.64877 15.6885 8.75833 16.7188 8.75833 17.9901Z" fill="#FF6C6C"/>
<path d="M8.75833 17.9901C8.75833 19.261 7.64877 20.2913 6.28009 20.2913V15.6885C7.64877 15.6885 8.75833 16.7188 8.75833 17.9901Z" fill="#FF4A4A"/>
<path d="M16.5052 2.30162C16.5052 3.57254 15.3954 4.60284 14.0269 4.60284H14.0263C12.6572 4.60225 11.5482 3.57254 11.5482 2.30162C11.5482 1.0303 12.6572 0.000595095 14.0263 0H14.0269C15.3954 0 16.5052 1.0303 16.5052 2.30162Z" fill="#00EE8A"/>
<path d="M16.5052 2.30162C16.5052 3.57254 15.3954 4.60284 14.0269 4.60284H14.0263V0H14.0269C15.3954 0 16.5052 1.0303 16.5052 2.30162Z" fill="#00DD80"/>
<path d="M25.6465 23.5543V25.2091C25.6465 25.6457 25.2648 26 24.7946 26H3.25797C2.78778 26 2.40625 25.6457 2.40625 25.2091V23.4932C2.40625 21.5068 4.14108 19.8965 6.27966 19.8965C7.7793 19.8965 9.07855 20.6874 9.71921 21.8448C9.89822 22.1685 10.4071 22.1723 10.5835 21.8528C11.2223 20.6911 12.5239 19.8965 14.0258 19.8965H14.0269C14.0526 19.8965 14.0793 19.8965 14.1047 19.8971C15.5727 19.9245 16.8391 20.7096 17.4705 21.8486C17.6418 22.1564 18.1398 22.1874 18.3325 21.8416C18.9667 20.7042 20.2348 19.9213 21.7022 19.8971C23.8792 19.8606 25.6465 21.5326 25.6465 23.5543Z" fill="#FF6C6C"/>
<path d="M25.6465 23.5543V25.2091C25.6465 25.6457 25.2648 26 24.7946 26H14.0269V19.8965C14.0526 19.8965 14.0793 19.8965 14.1047 19.8971C15.5727 19.9245 16.8391 20.7096 17.4705 21.8486C17.584 22.0525 17.8538 22.1507 18.1024 22.0499C18.2035 22.0089 18.2819 21.9323 18.3325 21.8416C18.9667 20.7042 20.2348 19.9213 21.7022 19.8971C23.8792 19.8606 25.6465 21.5326 25.6465 23.5543Z" fill="#FF4A4A"/>
</svg>
