<svg width="15" height="15" viewBox="0 0 15 15" fill="none" xmlns="http://www.w3.org/2000/svg">
<path d="M14.5459 5.5018C14.5014 5.37066 14.4194 5.25544 14.3102 5.17034C14.2009 5.08525 14.0691 5.03402 13.9311 5.02297L9.89285 4.70209L8.14539 0.833885C8.08974 0.709298 7.99922 0.60348 7.88476 0.529201C7.77029 0.454922 7.63678 0.415358 7.50033 0.415283C7.36388 0.415208 7.23032 0.454626 7.11578 0.528779C7.00123 0.602932 6.9106 0.708651 6.85481 0.833177L5.10735 4.70209L1.06914 5.02297C0.933464 5.03372 0.803756 5.08333 0.695535 5.16586C0.587313 5.2484 0.505162 5.36036 0.458908 5.48836C0.412654 5.61637 0.404256 5.75498 0.434719 5.88763C0.465183 6.02028 0.533217 6.14135 0.630683 6.23634L3.61489 9.14547L2.55948 13.7156C2.52743 13.854 2.5377 13.9987 2.58896 14.1312C2.64021 14.2636 2.73009 14.3776 2.84692 14.4583C2.96375 14.539 3.10214 14.5827 3.24414 14.5838C3.38613 14.5849 3.52518 14.5433 3.64322 14.4643L7.5001 11.8931L11.357 14.4643C11.4776 14.5445 11.6199 14.5857 11.7647 14.5825C11.9095 14.5793 12.0499 14.5319 12.1669 14.4466C12.2839 14.3613 12.372 14.2421 12.4193 14.1053C12.4666 13.9684 12.4709 13.8203 12.4315 13.6809L11.136 9.14759L14.349 6.25618C14.5594 6.06634 14.6366 5.77026 14.5459 5.5018V5.5018Z" fill="#FFCC33"/>
</svg>
