<svg width="45" height="44" viewBox="0 0 45 44" fill="none" xmlns="http://www.w3.org/2000/svg">
<g clip-path="url(#clip0_167_600)">
<path d="M6.82758 40.6458L16.6812 32.3765L12.3376 28.033L4.06836 37.8866L6.82758 40.6458Z" fill="#59474E"/>
<path d="M15.9365 28.7775L18.1112 30.9523L22.8157 27.2446L24.0012 26.3158V26.3083L28.7132 22.6006L43.6269 10.8585L44.7143 -0.000244141" fill="#90BAE1"/>
<path d="M13.7622 26.603L15.937 28.7778L44.7148 0L33.8561 1.0874L22.8162 15.11L19.8259 18.9083L18.4062 20.7131H18.3987L16.9187 22.6009L13.7622 26.603Z" fill="#B0D3F0"/>
<path d="M15.937 28.7778L13.7622 26.603L16.9187 22.6009L18.3987 20.7131H18.4062L19.8259 18.9083L22.8162 15.11L33.8561 1.0874L44.7148 0" fill="#B0D3F0"/>
<path d="M23.5372 21.9323C23.7375 21.9323 23.9295 21.8527 24.0711 21.7111L37.6468 8.13546C37.9329 7.83915 37.9289 7.36816 37.6375 7.07689C37.3463 6.78562 36.8753 6.78151 36.5789 7.06765L23.0034 20.6434C22.7874 20.8594 22.7229 21.1841 22.8397 21.4662C22.9567 21.7483 23.2319 21.9323 23.5372 21.9323Z" fill="#3F5C6C"/>
<path d="M39.2849 6.18498C39.4852 6.18498 39.6772 6.10534 39.8188 5.96377L41.4476 4.33497C41.6439 4.14541 41.7226 3.86458 41.6535 3.6006C41.5844 3.33662 41.3782 3.13038 41.1142 3.06126C40.8502 2.99214 40.5694 3.07084 40.3798 3.26716L38.7495 4.89595C38.5335 5.11194 38.469 5.43666 38.5858 5.71878C38.7027 6.00089 38.9779 6.18489 39.2833 6.18498H39.2849Z" fill="#3F5C6C"/>
<path d="M8.9668 25.5232C8.96697 25.9316 9.13001 26.323 9.41991 26.6106L18.1038 35.2946C18.7043 35.8951 19.678 35.8951 20.2785 35.2946C20.879 34.694 20.879 33.7203 20.2785 33.1198L11.5946 24.4359C11.1541 23.9969 10.4929 23.8659 9.91827 24.1037C9.34361 24.3414 8.96834 24.9014 8.9668 25.5232Z" fill="#F0C419"/>
<path d="M3.98887 43.7973C5.68542 43.7973 7.06075 42.422 7.06075 40.7254C7.06075 39.0289 5.68542 37.6536 3.98887 37.6536C2.29232 37.6536 0.916992 39.0289 0.916992 40.7254C0.916992 42.422 2.29232 43.7973 3.98887 43.7973Z" fill="#F0C419"/>
<path d="M3.98924 42.2353C4.82332 42.2353 5.49947 41.5592 5.49947 40.7251C5.49947 39.891 4.82332 39.2148 3.98924 39.2148C3.15516 39.2148 2.479 39.891 2.479 40.7251C2.479 41.5592 3.15516 42.2353 3.98924 42.2353Z" fill="#E57E25"/>
<path d="M38.8038 40.6458L28.9502 32.3765L33.2937 28.033L41.563 37.8866L38.8038 40.6458Z" fill="#59474E"/>
<path d="M29.6947 28.7775L27.52 30.9523L22.8156 27.2446L21.6301 26.3158V26.3083L16.9181 22.6006L2.00439 10.8585L0.916992 -0.000244141" fill="#90BAE1"/>
<path d="M31.8695 26.6028L29.6947 28.7775L0.916992 -0.000244141L11.7757 1.08716L22.8156 15.1098L25.8059 18.9081L27.2255 20.7128H27.233L28.7131 22.6006L31.8695 26.6028Z" fill="#B0D3F0"/>
<path d="M29.6947 28.7775L31.8695 26.6028L28.7131 22.6006L27.233 20.7128H27.2255L25.8059 18.9081L22.8156 15.1098L11.7757 1.08716L0.916992 -0.000244141" fill="#B0D3F0"/>
<path d="M22.0945 21.9323C21.8942 21.9323 21.7022 21.8527 21.5606 21.7111L7.98492 8.13546C7.69878 7.83915 7.7028 7.36816 7.99416 7.07689C8.28542 6.78562 8.75642 6.78151 9.05273 7.06765L22.6283 20.6432C22.8442 20.8592 22.9088 21.1839 22.792 21.4661C22.675 21.7483 22.3998 21.9323 22.0945 21.9323Z" fill="#3F5C6C"/>
<path d="M6.34728 6.18526C6.14729 6.1856 5.95525 6.10656 5.81342 5.9655L4.18462 4.33517C3.89849 4.03885 3.90251 3.56786 4.19386 3.27659C4.48522 2.98533 4.95612 2.98122 5.25244 3.26736L6.88277 4.89615C7.09868 5.11214 7.16326 5.43686 7.04641 5.71897C6.92956 6.00109 6.65429 6.18509 6.34891 6.18517H6.34728V6.18526Z" fill="#3F5C6C"/>
<path d="M36.666 25.523C36.6658 25.9314 36.5028 26.3227 36.2129 26.6104L27.529 35.2943C26.9284 35.8948 25.9547 35.8948 25.3542 35.2943C24.7537 34.6937 24.7537 33.7201 25.3542 33.1196L34.0382 24.4357C34.4787 23.9967 35.1399 23.8656 35.7145 24.1034C36.2892 24.3412 36.6644 24.9011 36.666 25.523Z" fill="#F0C419"/>
<path d="M41.6441 43.7971C43.3407 43.7971 44.716 42.4217 44.716 40.7252C44.716 39.0286 43.3407 37.6533 41.6441 37.6533C39.9476 37.6533 38.5723 39.0286 38.5723 40.7252C38.5723 42.4217 39.9476 43.7971 41.6441 43.7971Z" fill="#F0C419"/>
<path d="M41.643 42.2353C42.4771 42.2353 43.1533 41.5592 43.1533 40.7251C43.1533 39.891 42.4771 39.2148 41.643 39.2148C40.809 39.2148 40.1328 39.891 40.1328 40.7251C40.1328 41.5592 40.809 42.2353 41.643 42.2353Z" fill="#E57E25"/>
</g>
<defs>
<clipPath id="clip0_167_600">
<rect width="43.7972" height="43.7972" fill="white" transform="translate(0.917969)"/>
</clipPath>
</defs>
</svg>
