<svg width="48" height="48" viewBox="0 0 48 48" fill="none" xmlns="http://www.w3.org/2000/svg">
<path d="M38.5435 9.00952H9.48389C9.11987 9.00952 8.78845 8.80005 8.63171 8.47156L6.05615 3.06299H41.9716L39.396 8.47156C39.2393 8.80005 38.9078 9.00952 38.5435 9.00952Z" fill="#43A3F9"/>
<path d="M41.971 3.06335L39.3958 8.47192C39.2386 8.80005 38.9076 9.00916 38.5432 9.00916H36.4485C36.8118 9.00916 37.1439 8.80005 37.2999 8.47192L39.8762 3.06335H41.971Z" fill="#1685FB"/>
<path d="M42.7578 0.943725V4.24292C42.7578 4.7644 42.3356 5.18664 41.8141 5.18664H6.21362C5.69214 5.18664 5.26953 4.7644 5.26953 4.24292V0.943725C5.2699 0.42334 5.69214 0 6.21362 0H41.8141C42.3356 0 42.7578 0.42334 42.7578 0.943725Z" fill="#E3F4FF"/>
<path d="M42.7577 0.943725V4.24292C42.7577 4.7644 42.3354 5.18664 41.814 5.18664H40.0137C40.5352 5.18664 40.9574 4.7644 40.9574 4.24292V0.943725C40.9574 0.42334 40.5352 0 40.0137 0H41.814C42.3354 0 42.7577 0.42334 42.7577 0.943725Z" fill="#BDDFF4"/>
<path d="M31.1675 5.18665H16.8596L18.6292 2.90332C18.8123 2.66711 19.0939 2.52905 19.3927 2.52905H28.6344C28.9332 2.52905 29.2152 2.66711 29.3979 2.90332L31.1675 5.18665Z" fill="#AFAFAF"/>
<path d="M6.65222 40.4065H41.3752C41.7393 40.4065 42.071 40.6156 42.2274 40.9445L44.803 46.3531H3.22412L5.79968 40.9445C5.95642 40.616 6.28821 40.4065 6.65222 40.4065Z" fill="#43A3F9"/>
<path d="M44.8025 46.3531H42.7074L40.1326 40.9441C39.9755 40.6164 39.6444 40.4062 39.28 40.4062H41.3748C41.7391 40.4062 42.0713 40.6164 42.2273 40.9441L44.8025 46.3531Z" fill="#1685FB"/>
<path d="M3.38159 44.229H44.6459C45.1674 44.229 45.59 44.6516 45.59 45.1731V47.0562C45.59 47.5773 45.1674 47.9999 44.6459 47.9999H3.38159C2.86011 47.9999 2.4375 47.5773 2.4375 47.0562V45.1731C2.4375 44.6516 2.86011 44.229 3.38159 44.229Z" fill="#E3F4FF"/>
<path d="M45.5902 45.1735V47.0562C45.5902 47.5777 45.1669 47.9999 44.6454 47.9999H42.302C42.8235 47.9999 43.2457 47.5777 43.2457 47.0562V45.1735C43.2457 44.6516 42.8235 44.2294 42.302 44.2294H44.6454C45.1669 44.2294 45.5902 44.6516 45.5902 45.1735Z" fill="#BDDFF4"/>
<path d="M24.0137 21.7005C19.3053 21.7005 14.8716 21.308 11.5288 20.5953C7.7052 19.7801 5.84668 18.6881 5.84668 17.2569C5.84668 15.8261 7.7052 14.7341 11.5288 13.9189C14.8716 13.2059 19.3053 12.8137 24.0137 12.8137C28.722 12.8137 33.1561 13.2059 36.4989 13.9189C40.3221 14.7341 42.181 15.8261 42.181 17.2569C42.181 18.6881 40.3221 19.7798 36.4989 20.5953C33.1561 21.308 28.722 21.7005 24.0137 21.7005ZM24.0137 14.2624C19.4038 14.2624 15.0774 14.6436 11.8309 15.3358C7.49023 16.2612 7.29541 17.2474 7.29541 17.2569C7.29541 17.2668 7.49023 18.253 11.8309 19.1784C15.0774 19.8706 19.4038 20.2518 24.0137 20.2518C28.6235 20.2518 32.9503 19.8706 36.1964 19.1784C40.5371 18.253 40.7319 17.2668 40.7319 17.2569C40.7319 17.2474 40.5371 16.2612 36.1964 15.3358C32.9503 14.6436 28.6239 14.2624 24.0137 14.2624Z" fill="white" fill-opacity="0.94"/>
<path d="M24.0137 26.9494C19.3053 26.9494 14.8716 26.5569 11.5288 25.8442C7.7052 25.029 5.84668 23.937 5.84668 22.5062C5.84668 21.075 7.7052 19.9834 11.5288 19.1678C14.8716 18.4552 19.3053 18.063 24.0137 18.063C28.722 18.063 33.1561 18.4552 36.4989 19.1678C40.3221 19.983 42.181 21.075 42.181 22.5062C42.181 23.937 40.3221 25.029 36.4989 25.8442C33.1561 26.5569 28.722 26.9494 24.0137 26.9494ZM24.0137 19.5117C19.4038 19.5117 15.0774 19.8925 11.8309 20.5851C7.49023 21.5105 7.29541 22.4967 7.29541 22.5062C7.29541 22.5157 7.49023 23.5019 11.8309 24.4273C15.0774 25.1195 19.4038 25.5007 24.0137 25.5007C28.6235 25.5007 32.9503 25.1195 36.1964 24.4273C40.5371 23.5019 40.7319 22.5157 40.7319 22.5062C40.7319 22.4967 40.5371 21.5105 36.1964 20.5851C32.9503 19.8925 28.6239 19.5117 24.0137 19.5117Z" fill="#AFAFAF"/>
<path d="M24.0137 32.1983C19.3053 32.1983 14.8716 31.8061 11.5288 31.0931C7.7052 30.2783 5.84668 29.1862 5.84668 27.7551C5.84668 26.3243 7.7052 25.2322 11.5288 24.4171C14.8716 23.7044 19.3053 23.3118 24.0137 23.3118C28.722 23.3118 33.1561 23.7044 36.4989 24.4171C40.3221 25.2322 42.181 26.3243 42.181 27.7551C42.181 29.1862 40.3221 30.2779 36.4989 31.0931C33.1561 31.8061 28.722 32.1983 24.0137 32.1983ZM24.0137 24.7606C19.4038 24.7606 15.0774 25.1418 11.8309 25.8339C7.49023 26.7593 7.29541 27.7455 7.29541 27.7554C7.29541 27.765 7.49023 28.7512 11.8309 29.6766C15.0774 30.3687 19.4038 30.7499 24.0137 30.7499C28.6235 30.7499 32.9503 30.3687 36.1964 29.6766C40.5371 28.7512 40.7319 27.765 40.7319 27.7554C40.7319 27.7455 40.5371 26.7593 36.1964 25.8339C32.9503 25.1418 28.6239 24.7606 24.0137 24.7606Z" fill="white" fill-opacity="0.94"/>
<path d="M24.0137 37.4476C19.3053 37.4476 14.8716 37.055 11.5288 36.3423C7.7052 35.5272 5.84668 34.4351 5.84668 33.0043C5.84668 31.5732 7.7052 30.4815 11.5288 29.666C14.8716 28.9533 19.3053 28.5607 24.0137 28.5607C28.722 28.5607 33.1561 28.9533 36.4989 29.666C40.3221 30.4811 42.181 31.5732 42.181 33.0043C42.181 34.4351 40.3221 35.5272 36.4989 36.3423C33.1561 37.055 28.722 37.4476 24.0137 37.4476ZM24.0137 30.0098C19.4038 30.0098 15.0774 30.3911 11.8309 31.0832C7.49023 32.0086 7.29541 32.9948 7.29541 33.0043C7.29541 33.0139 7.49023 34.0001 11.8309 34.9255C15.0774 35.6176 19.4038 35.9988 24.0137 35.9988C28.6235 35.9988 32.9503 35.618 36.1964 34.9255C40.5371 34.0001 40.7319 33.0139 40.7319 33.0043C40.7319 32.9948 40.5371 32.0086 36.1964 31.0832C32.9503 30.3911 28.6239 30.0098 24.0137 30.0098Z" fill="#AFAFAF"/>
<path d="M23.1021 13.6157C23.1021 14.7583 22.1763 15.6844 21.0337 15.6844C19.8915 15.6844 18.9653 14.7583 18.9653 13.6157C18.9653 12.4735 19.8915 11.5473 21.0337 11.5473C22.1763 11.5473 23.1021 12.4735 23.1021 13.6157Z" fill="#AFAFAF"/>
<path d="M21.0342 15.6848C20.4175 15.6848 19.863 15.4149 19.4844 14.9864C19.5759 14.9992 19.6697 15.0055 19.7653 15.0055C20.9086 15.0051 21.834 14.0793 21.8344 12.9371C21.8336 12.4112 21.6377 11.9311 21.3143 11.5667C22.324 11.7033 23.1022 12.5687 23.1022 13.6161C23.1022 14.7583 22.1768 15.6844 21.0342 15.6848Z" fill="white"/>
<path d="M13.7089 35.6429C13.7089 36.7855 12.7827 37.7116 11.6405 37.7116C10.4979 37.7116 9.57178 36.7855 9.57178 35.6429C9.57178 34.5007 10.4979 33.5745 11.6405 33.5745C12.7827 33.5745 13.7089 34.5007 13.7089 35.6429Z" fill="#AFAFAF"/>
<path d="M11.6405 37.712C11.0242 37.712 10.4697 37.4421 10.0911 37.0136C10.1826 37.0264 10.2764 37.0327 10.3716 37.0327C11.5153 37.0323 12.4403 36.1065 12.4407 34.9643C12.4403 34.4384 12.244 33.9583 11.921 33.5939C12.9303 33.7305 13.7085 34.5959 13.7089 35.6432C13.7085 36.7855 12.7831 37.7116 11.6405 37.712Z" fill="white"/>
<path d="M38.4062 25.025C38.4062 26.1672 37.4805 27.0933 36.3379 27.0933C35.1953 27.0933 34.2695 26.1672 34.2695 25.025C34.2695 23.8824 35.1953 22.9562 36.3379 22.9562C37.4805 22.9562 38.4062 23.8824 38.4062 25.025Z" fill="#AFAFAF"/>
<path d="M36.3384 27.0937C35.7217 27.0937 35.1672 26.8238 34.7886 26.3957C34.8801 26.4081 34.9739 26.4147 35.0695 26.4144C36.2128 26.4144 37.1382 25.4886 37.1382 24.3464C37.1378 23.8201 36.9419 23.34 36.6185 22.9756C37.6282 23.1122 38.4064 23.978 38.4064 25.0253C38.4064 26.1675 37.481 27.0933 36.3384 27.0937Z" fill="white"/>
<path d="M33.4076 3.78772C33.0073 3.78772 32.6785 3.46326 32.6785 3.06335C32.6785 2.66309 32.9985 2.33899 33.3984 2.33899H33.4076C33.8075 2.33899 34.132 2.66309 34.132 3.06335C34.132 3.46326 33.8075 3.78772 33.4076 3.78772Z" fill="#AFAFAF"/>
<path d="M35.5137 3.78772C35.1138 3.78772 34.7849 3.46326 34.7849 3.06335C34.7849 2.66309 35.1046 2.33899 35.5045 2.33899H35.5137C35.9139 2.33899 36.238 2.66309 36.238 3.06335C36.238 3.46326 35.9139 3.78772 35.5137 3.78772Z" fill="#AFAFAF"/>
</svg>
