<svg width="48" height="48" viewBox="0 0 48 48" fill="none" xmlns="http://www.w3.org/2000/svg">
<path d="M40.3569 6.73584H4.64719C2.08472 6.73584 0 8.82056 0 11.3831V12.0135C0 14.576 2.08472 16.6607 4.64719 16.6607H40.3571C40.7466 16.6607 41.0621 16.3451 41.0621 15.9557V7.44084C41.062 7.0514 40.7465 6.73584 40.3569 6.73584Z" fill="#7C3D1E"/>
<path d="M0.192469 10.0619C0.067875 10.481 0 10.924 0 11.3831V12.0135C0 14.576 2.08472 16.6607 4.64719 16.6607H40.3571C40.7466 16.6607 41.0621 16.3451 41.0621 15.9557V13.3854H4.64719C2.54063 13.3853 0.762563 11.9833 0.192469 10.0619Z" fill="#68321A"/>
<path d="M22.4707 4.56788L19.7924 1.88963C19.5172 1.61438 19.0707 1.61438 18.7953 1.88963L5.22797 15.4569C5.02631 15.6587 4.96603 15.9618 5.07525 16.2253C5.18428 16.4889 5.44153 16.6606 5.72662 16.6606H11.0832C11.2702 16.6606 11.4495 16.5864 11.5818 16.4542L22.4708 5.5651C22.603 5.43282 22.6773 5.25357 22.6773 5.06654C22.6773 4.87951 22.6029 4.70026 22.4707 4.56788Z" fill="#78AA17"/>
<path d="M7.2675 13.4174L5.22797 15.4569C5.02631 15.6587 4.96603 15.9618 5.07525 16.2253C5.18428 16.4889 5.44153 16.6606 5.72662 16.6606H11.0832C11.2702 16.6606 11.4495 16.5864 11.5818 16.4542L14.6184 13.4175H7.2675V13.4174Z" fill="#6D8915"/>
<path d="M38.7163 15.4569L25.1491 1.88963C24.8737 1.61438 24.4273 1.61438 24.1519 1.88963L10.5847 15.4569C10.383 15.6587 10.3227 15.9618 10.4319 16.2253C10.541 16.4889 10.7982 16.6606 11.0833 16.6606H38.2179C38.503 16.6606 38.7602 16.4889 38.8693 16.2253C38.9782 15.9618 38.918 15.6586 38.7163 15.4569Z" fill="#8ACC19"/>
<path d="M10.5847 15.4569C10.383 15.6587 10.3227 15.9618 10.4319 16.2253C10.541 16.4888 10.7982 16.6606 11.0833 16.6606H38.2179C38.503 16.6606 38.7602 16.4888 38.8693 16.2253C38.9784 15.9618 38.9182 15.6587 38.7166 15.4569L36.6771 13.4174H12.6242L10.5847 15.4569Z" fill="#78A017"/>
<path d="M34.7073 15.4569L27.1747 7.9243C27.0425 7.79212 26.8631 7.71786 26.6762 7.71786C26.4892 7.71786 26.31 7.79212 26.1776 7.9243C25.7725 8.32949 25.234 8.55261 24.661 8.55261C24.0881 8.55261 23.5495 8.32958 23.1444 7.9244C23.0122 7.79212 22.8329 7.71786 22.6459 7.71786C22.4588 7.71786 22.2796 7.79212 22.1473 7.9243L14.6147 15.4569C14.413 15.6587 14.3527 15.9618 14.462 16.2253C14.571 16.4888 14.8282 16.6606 15.1133 16.6606H34.2088C34.4939 16.6606 34.7511 16.4888 34.8602 16.2253C34.9692 15.9618 34.9088 15.6586 34.7073 15.4569Z" fill="#78A017"/>
<path d="M14.6149 15.4569C14.4133 15.6587 14.353 15.9618 14.4622 16.2253C14.5712 16.4889 14.8285 16.6606 15.1136 16.6606H34.209C34.4941 16.6606 34.7514 16.4889 34.8604 16.2253C34.9695 15.9618 34.9093 15.6587 34.7077 15.4569L32.6682 13.4174H16.6544L14.6149 15.4569Z" fill="#6D8915"/>
<path d="M44.7379 15.2505H11.196H4.96237H3.81262C1.788 15.2505 0.132 13.6756 0.00075 11.6841C0.00065625 11.6888 0 11.6935 0 11.6985V11.6986V41.3545C0 44.0908 2.22609 46.3169 4.96237 46.3169H44.738C45.1274 46.3169 45.443 46.0013 45.443 45.6119V15.9555C45.443 15.5661 45.1273 15.2505 44.7379 15.2505Z" fill="#AA5D24"/>
<path d="M45.4429 27.3605H37.8543C35.0199 27.3605 32.7139 29.6663 32.7139 32.5009C32.7139 35.3352 35.0197 37.6413 37.8543 37.6413H45.4429V27.3605Z" fill="#7C3D1E"/>
<path d="M45.8849 25.5498H37.8543C35.0199 25.5498 32.7139 27.8556 32.7139 30.6902C32.7139 33.5245 35.0197 35.8306 37.8543 35.8306H45.8849C47.0511 35.8306 48 34.8817 48 33.7155V27.665C48 26.4985 47.0511 25.5498 45.8849 25.5498Z" fill="#F99608"/>
<path d="M38.4514 28.3901C37.1833 28.3901 36.1516 29.4219 36.1516 30.69C36.1516 31.9581 37.1833 32.9898 38.4514 32.9898C39.7195 32.9898 40.7513 31.9581 40.7513 30.69C40.7513 29.4219 39.7195 28.3901 38.4514 28.3901Z" fill="#FFD039"/>
</svg>
