<svg width="60" height="60" viewBox="0 0 60 60" fill="none" xmlns="http://www.w3.org/2000/svg">
<g clip-path="url(#clip0_114_117)">
<path d="M49.9842 32.9937C49.9842 32.9937 51.6845 36.9822 51.592 39.3348C51.592 39.3348 50.2617 37.3101 49.1106 36.6087C49.1106 36.6087 50.1118 41.4216 46.6584 44.7309C43.2051 48.0403 41.9029 49.7945 41.9029 49.7945L42.4029 46.8364C42.4029 46.8364 38.8992 51.099 38.549 52.9036C38.1989 54.7081 38.1439 49.4443 38.1439 49.4443C38.1439 49.4443 32.9515 57.7622 30.038 59.2412C30.0215 59.2498 30.0032 59.2544 29.9847 59.2544C29.9661 59.2544 29.9478 59.2498 29.9314 59.2412C27.0179 57.7622 21.8126 49.4443 21.8126 49.4443C21.8126 49.4443 21.7576 54.7081 21.4074 52.9036C21.0573 51.099 17.5536 46.8364 17.5536 46.8364L18.0536 49.7945C18.0536 49.7945 16.7526 48.0403 13.298 44.7309C9.8435 41.4216 10.8459 36.6087 10.8459 36.6087C9.69478 37.3101 8.36448 39.3348 8.36448 39.3348C8.27197 36.9822 9.97231 32.9937 9.97231 32.9937C9.97231 32.9937 14.099 30.8858 15.6307 28.2475C16.1119 27.4354 16.7295 26.7125 17.4564 26.1104C17.4564 26.1104 12.5486 33.7103 18.9916 37.9998C18.9916 37.9998 21.2576 40.6874 22.541 43.5295C22.8092 44.1232 23.0469 44.622 23.2577 45.0389C23.3455 45.2146 23.4287 45.3762 23.5071 45.5237C24.0177 46.4962 24.8873 47.2314 25.9312 47.573C25.9312 47.573 26.4651 48.5625 28.094 49.1586C29.3555 49.624 30.7423 49.6195 32.0006 49.1457C33.5675 48.5485 34.0253 47.573 34.0253 47.573C35.0692 47.2314 35.9388 46.4962 36.4494 45.5237C36.5274 45.3762 36.6106 45.2146 36.6988 45.0389C36.9096 44.622 37.1473 44.1232 37.4155 43.5295C38.6989 40.6874 40.9649 37.9998 40.9649 37.9998C47.4079 33.7103 42.5001 26.1104 42.5001 26.1104C43.227 26.7125 43.8446 27.4354 44.3257 28.2475C45.8574 30.8858 49.9842 32.9937 49.9842 32.9937Z" fill="#ACA6AE"/>
<path d="M25.3257 49.4443C25.3257 49.4443 25.2707 54.7081 24.9206 52.9036C24.5704 51.099 21.0667 46.8364 21.0667 46.8364L21.5667 49.7945C21.5667 49.7945 20.2657 48.0403 16.8111 44.7309C13.3566 41.4216 14.359 36.6087 14.359 36.6087C13.2079 37.3101 11.8776 39.3348 11.8776 39.3348C11.7851 36.9822 13.4854 32.9937 13.4854 32.9937C14.242 32.5919 14.9735 32.1446 15.6759 31.6544C15.8048 28.6682 17.4559 26.1104 17.4559 26.1104C16.729 26.7125 16.1114 27.4354 15.6303 28.2475C14.0986 30.8858 9.97184 32.9937 9.97184 32.9937C9.97184 32.9937 8.27197 36.9822 8.36448 39.3348C8.36448 39.3348 9.69478 37.3101 10.8459 36.6087C10.8459 36.6087 9.84467 41.4216 13.298 44.7309C16.7514 48.0403 18.0536 49.7945 18.0536 49.7945L17.5536 46.8364C17.5536 46.8364 21.0573 51.099 21.4075 52.9036C21.7576 54.7081 21.8126 49.4443 21.8126 49.4443C21.8126 49.4443 27.0179 57.7622 29.9314 59.2412C29.9478 59.2498 29.9661 59.2544 29.9847 59.2544C30.0033 59.2544 30.0215 59.2498 30.038 59.2412C30.5489 58.9818 31.13 58.5116 31.7407 57.9135C28.8658 55.1003 25.3257 49.4443 25.3257 49.4443Z" fill="#8F8891"/>
<path d="M24.4335 9.86456C25.293 10.5496 25.9851 11.2183 25.9851 11.2183C24.7473 11.2183 23.8679 12.2617 23.3409 13.154C23.3409 13.154 22.8503 11.4981 18.5889 8.64317C16.7141 7.38665 14.9634 5.46147 14.3181 2.79269C15.0805 1.35934 15.7128 0.702393 15.7128 0.702393C15.7128 0.702393 18.8102 6.81636 22.6043 8.64317C23.1828 8.9207 23.8468 9.39731 24.4335 9.86456Z" fill="#8F858F"/>
<path d="M44.244 0.702393C44.244 0.702393 44.8763 1.35934 45.6387 2.79269C44.9934 5.46147 42.3668 7.47682 41.4757 8.06819C37.2061 10.9021 36.911 13.7055 36.911 13.7055C36.4578 12.7675 35.48 11.2183 33.9717 11.2183C33.9717 11.2183 34.8207 10.5438 35.9894 9.64557C36.9941 8.87269 38.2354 7.93235 39.3748 7.11263C43.546 4.11244 44.244 0.702393 44.244 0.702393Z" fill="#8F858F"/>
<path d="M34.0256 47.5731C34.0256 47.5731 33.5677 48.5485 32.0009 49.1458C30.7426 49.6195 29.3557 49.6241 28.0943 49.1586C26.4654 48.5626 25.9314 47.5731 25.9314 47.5731C26.5521 47.7746 27.2127 47.8208 27.8554 47.7077C28.7138 47.5469 29.4755 47.0574 29.9785 46.3435C30.4815 47.0574 31.2432 47.5469 32.1016 47.7077C32.7443 47.8208 33.4049 47.7746 34.0256 47.5731Z" fill="#494449"/>
<path d="M23.258 45.0388C23.0472 44.6219 22.8095 44.1231 22.5413 43.5294C21.2579 40.6873 18.9919 37.9998 18.9919 37.9998C20.0588 38.7106 21.4371 39.3301 23.2006 39.809C22.9348 41.5211 22.8786 43.3362 23.258 45.0388Z" fill="#494449"/>
<path d="M40.965 37.9998C40.965 37.9998 38.6991 40.6873 37.4156 43.5294C37.1475 44.1231 36.9098 44.6219 36.699 45.0388C37.0784 43.3362 37.0222 41.5211 36.7564 39.809C38.5199 39.3301 39.8982 38.7106 40.965 37.9998Z" fill="#494449"/>
<path d="M48.3204 25.9464L51.8394 27.573C51.7691 25.5225 49.8135 23.0797 47.811 21.103C49.1249 11.4057 47.133 5.60438 45.6387 2.79272C44.9935 5.46151 42.3669 7.47686 41.4757 8.06823C37.2061 10.9021 36.911 13.7056 36.911 13.7056C36.4578 12.7676 35.48 11.2183 33.9717 11.2183C33.9717 11.2183 34.8207 10.5438 35.9894 9.64561V9.64444C35.4027 9.17486 34.4437 8.86102 33.4729 8.65141C31.315 8.1976 29.0813 8.2493 26.9467 8.80247C25.9794 9.04956 25.0204 9.39384 24.4337 9.8646C25.2932 10.5497 25.9853 11.2183 25.9853 11.2183C24.7475 11.2183 23.8681 12.2617 23.3411 13.154C23.3411 13.154 22.8504 11.4982 18.589 8.64321C16.7142 7.38669 14.9635 5.46151 14.3183 2.79272C12.824 5.60438 10.8321 11.4057 12.146 21.103C10.1435 23.0797 8.18792 25.5225 8.11766 27.573L11.6366 25.9464C11.6366 25.9464 7.12463 31.1224 7.45369 36.2281C7.45369 36.2281 8.57788 33.4902 9.97258 32.9937C9.97258 32.9937 14.0993 30.8858 15.631 28.2475C16.1121 27.4354 16.7297 26.7125 17.4567 26.1103C17.4567 26.1103 12.5488 33.7104 18.9919 37.9999C20.0587 38.7107 21.437 39.3302 23.2006 39.8091C22.9347 41.5212 22.8785 43.3363 23.2579 45.0389C23.3458 45.2146 23.4289 45.3762 23.5074 45.5237C24.0179 46.4963 24.8875 47.2314 25.9314 47.5731C26.5521 47.7746 27.2127 47.8208 27.8554 47.7077C28.7138 47.5468 29.4755 47.0574 29.9785 46.3435C30.4815 47.0574 31.2432 47.5468 32.1016 47.7077C32.7443 47.8208 33.4049 47.7746 34.0256 47.5731C35.0695 47.2314 35.9391 46.4963 36.4496 45.5237C36.5277 45.3762 36.6108 45.2146 36.6991 45.0389C37.0785 43.3363 37.0223 41.5212 36.7564 39.8091C38.52 39.3302 39.8983 38.7107 40.9651 37.9999C47.4082 33.7104 42.5004 26.1103 42.5004 26.1103C43.2273 26.7125 43.8449 27.4354 44.326 28.2475C45.8577 30.8858 49.9844 32.9937 49.9844 32.9937C51.3791 33.4902 52.5033 36.2281 52.5033 36.2281C52.8324 31.1224 48.3204 25.9464 48.3204 25.9464Z" fill="#726871"/>
<path d="M25.497 28.8554H25.4958C21.0366 29.7184 21.1876 26.0671 21.1876 26.0671C22.0401 26.0238 23.9559 26.155 25.0825 27.9982C25.2477 28.27 25.3865 28.5571 25.497 28.8554Z" fill="#CCD3DF"/>
<path d="M38.7694 26.0671C38.7694 26.0671 38.9204 29.7184 34.4611 28.8554H34.46C34.5705 28.5571 34.7093 28.27 34.8745 27.9982C36.001 26.155 37.9169 26.0238 38.7694 26.0671Z" fill="#CCD3DF"/>
<path d="M30.0628 40.8088C32.0161 40.8088 33.6005 42.0478 33.6005 43.576C33.6005 45.1042 32.0161 46.3443 30.0628 46.3443C30.0347 46.3443 30.0066 46.3443 29.9785 46.3431C28.0639 46.308 26.5251 45.0831 26.5251 43.576C26.5251 42.0478 28.1096 40.8088 30.0628 40.8088Z" fill="#403C42"/>
<path d="M11.6308 27.5732C11.701 25.5227 13.6566 23.0799 15.6591 21.1032C14.7833 14.6391 15.3768 9.90816 16.3122 6.63829C15.3506 5.53373 14.667 4.21533 14.3183 2.79297C12.824 5.60462 10.8321 11.4059 12.146 21.1032C10.1435 23.0799 8.18792 25.5227 8.11766 27.5732L11.6366 25.9466C11.6366 25.9466 7.12463 31.1226 7.45369 36.2283C7.45369 36.2283 8.57788 33.4904 9.97258 32.9939C9.97258 32.9939 10.6881 32.6279 11.6331 32.0115C12.823 28.6155 15.1497 25.9466 15.1497 25.9466L11.6308 27.5732Z" fill="#5B535B"/>
<path d="M27.0205 45.524C26.942 45.3764 26.8589 45.2148 26.7711 45.0392C26.3917 43.3365 26.4479 41.5214 26.7137 39.8093C24.9501 39.3304 23.5718 38.7109 22.505 38.0001C16.062 33.7106 20.9698 26.1106 20.9698 26.1106C20.2429 26.7127 19.6253 27.4357 19.1441 28.2477C18.3647 29.5902 16.9139 30.7946 15.6762 31.6546C15.5825 33.8151 16.2869 36.1993 18.9919 38.0001C20.0587 38.7109 21.437 39.3304 23.2006 39.8093C22.9348 41.5214 22.8786 43.3365 23.258 45.0392C23.3458 45.2148 23.4289 45.3764 23.5074 45.524C24.018 46.4965 24.8875 47.2316 25.9314 47.5733C26.5521 47.7748 27.2127 47.8211 27.8554 47.708C28.2126 47.6426 28.5563 47.5179 28.8723 47.3391C28.0806 46.9423 27.433 46.3076 27.0205 45.524Z" fill="#5B535B"/>
<path d="M29.9175 19.8371C29.7623 19.8371 29.6133 19.7755 29.5035 19.6657C29.3937 19.5558 29.332 19.4069 29.332 19.2516V11.6185C29.332 11.4632 29.3937 11.3143 29.5035 11.2045C29.6133 11.0946 29.7623 11.033 29.9175 11.033C30.0728 11.033 30.2218 11.0946 30.3316 11.2045C30.4414 11.3143 30.5031 11.4632 30.5031 11.6185V19.2516C30.5031 19.4069 30.4414 19.5558 30.3316 19.6657C30.2218 19.7755 30.0728 19.8371 29.9175 19.8371Z" fill="#5B535B"/>
<path d="M27.3995 30.9142C27.2983 30.9141 27.1989 30.8877 27.111 30.8377C27.023 30.7878 26.9495 30.7159 26.8976 30.629C26.8457 30.5422 26.8172 30.4434 26.8149 30.3423C26.8125 30.2411 26.8364 30.1411 26.8842 30.052C27.9185 28.1222 27.3626 25.8323 27.3568 25.8093C27.3373 25.7345 27.3328 25.6565 27.3436 25.5798C27.3544 25.5032 27.3802 25.4295 27.4197 25.3629C27.4591 25.2963 27.5114 25.2382 27.5734 25.192C27.6355 25.1458 27.7061 25.1123 27.7811 25.0935C27.8562 25.0747 27.9343 25.0709 28.0108 25.0825C28.0873 25.094 28.1608 25.1206 28.2269 25.1608C28.2931 25.2009 28.3507 25.2537 28.3963 25.3162C28.4419 25.3787 28.4747 25.4496 28.4927 25.5249C28.5206 25.6364 29.1619 28.2811 27.9162 30.6053C27.8662 30.6987 27.7916 30.7768 27.7006 30.8312C27.6096 30.8856 27.5055 30.9143 27.3995 30.9142Z" fill="#5B535B"/>
<path d="M25.9317 22.8897C25.8382 22.8899 25.7461 22.8676 25.663 22.8248C25.5799 22.782 25.5083 22.72 25.4541 22.6438C25.1442 22.2083 23.9116 21.9614 23.1764 21.9318C23.0995 21.9287 23.0241 21.9105 22.9542 21.8783C22.8844 21.8461 22.8217 21.8004 22.7695 21.7439C22.6642 21.6298 22.6085 21.4785 22.6147 21.3233C22.6209 21.1682 22.6885 21.0218 22.8026 20.9165C22.9168 20.8112 23.068 20.7555 23.2232 20.7617C23.6377 20.7844 24.0497 20.8392 24.4557 20.9256C25.4062 21.1303 26.0631 21.4799 26.4079 21.9646C26.4703 22.0521 26.5073 22.1552 26.515 22.2624C26.5227 22.3696 26.5007 22.4768 26.4515 22.5723C26.4022 22.6679 26.3277 22.748 26.2359 22.804C26.1442 22.86 26.0388 22.8896 25.9313 22.8897H25.9317Z" fill="#5B535B"/>
<path d="M32.5576 30.9142C32.4516 30.9143 32.3475 30.8856 32.2566 30.8312C32.1656 30.7768 32.0911 30.6987 32.041 30.6053C30.7954 28.2812 31.4366 25.6364 31.4645 25.5249C31.5046 25.377 31.6011 25.2507 31.7333 25.1731C31.8655 25.0955 32.0228 25.0728 32.1716 25.11C32.3203 25.1471 32.4485 25.2411 32.5287 25.3718C32.6089 25.5024 32.6346 25.6593 32.6004 25.8087C32.5906 25.8496 32.0492 28.142 33.0729 30.052C33.1207 30.1412 33.1446 30.2412 33.1423 30.3423C33.1399 30.4434 33.1114 30.5422 33.0595 30.6291C33.0076 30.7159 32.9341 30.7878 32.8462 30.8378C32.7582 30.8878 32.6588 30.9141 32.5577 30.9142H32.5576Z" fill="#5B535B"/>
<path d="M34.0251 22.8897C33.9176 22.8897 33.8122 22.86 33.7205 22.804C33.6287 22.7481 33.5542 22.6679 33.505 22.5724C33.4557 22.4768 33.4338 22.3696 33.4414 22.2624C33.4491 22.1552 33.4862 22.0521 33.5485 21.9646C33.8934 21.4799 34.5502 21.1303 35.5007 20.9256C35.9067 20.8392 36.3188 20.7844 36.7332 20.7617C36.8101 20.7586 36.8867 20.7707 36.9589 20.7973C37.0311 20.8238 37.0973 20.8643 37.1538 20.9165C37.2103 20.9686 37.256 21.0314 37.2882 21.1012C37.3204 21.171 37.3386 21.2465 37.3417 21.3233C37.3448 21.4002 37.3327 21.4768 37.3061 21.549C37.2796 21.6212 37.2391 21.6874 37.1869 21.7439C37.1347 21.8004 37.072 21.8461 37.0022 21.8783C36.9324 21.9106 36.8569 21.9287 36.7801 21.9318C36.0216 21.964 34.8137 22.2061 34.5022 22.6438C34.4481 22.7199 34.3765 22.782 34.2935 22.8247C34.2105 22.8675 34.1185 22.8898 34.0251 22.8897Z" fill="#5B535B"/>
<path d="M47.1488 19.6669C46.3946 18.9793 45.6824 18.3841 45.1112 17.9262L46.2847 17.8727C46.3998 17.8692 46.5116 17.8325 46.6063 17.7669C46.7011 17.7013 46.7749 17.6098 46.8188 17.5032C46.8475 17.4307 46.8614 17.3531 46.8598 17.2751C46.8581 17.1971 46.8409 17.1202 46.8091 17.049C46.7774 16.9777 46.7317 16.9135 46.6748 16.8601C46.6179 16.8067 46.5509 16.7652 46.4778 16.7381L43.3661 15.5843L45.4492 13.6932C45.5305 13.6216 45.5908 13.5294 45.6238 13.4263C45.6568 13.3232 45.6612 13.2131 45.6366 13.1076C45.6001 12.9609 45.5082 12.8339 45.3802 12.7533C45.2523 12.6727 45.0981 12.6447 44.9499 12.6751L39.3567 13.8256C39.2107 13.8531 39.08 13.9336 38.9898 14.0516C38.8995 14.1696 38.856 14.3168 38.8676 14.4649C38.876 14.5462 38.9015 14.6249 38.9422 14.6958C38.9829 14.7667 39.0381 14.8283 39.104 14.8766C39.17 14.9249 39.2454 14.9589 39.3253 14.9763C39.4052 14.9937 39.4879 14.9941 39.568 14.9777L43.09 14.2533L41.8815 15.3502C41.7635 15.4531 41.6895 15.5975 41.6749 15.7534C41.6652 15.8802 41.6971 16.0068 41.7658 16.114C41.8344 16.2212 41.9361 16.3031 42.0554 16.3474L43.3792 16.8382C43.2573 16.8602 43.1454 16.9203 43.0598 17.0099C42.9742 17.0995 42.9193 17.214 42.9028 17.3368C42.8906 17.4456 42.908 17.5556 42.9532 17.6553C42.9984 17.7549 43.0698 17.8405 43.1596 17.9029C44.2722 18.7209 45.3395 19.5989 46.3566 20.5329C46.4714 20.6379 46.6232 20.693 46.7786 20.686C46.934 20.679 47.0803 20.6106 47.1853 20.4958C47.2903 20.381 47.3453 20.2292 47.3384 20.0737C47.3314 19.9183 47.263 19.772 47.1482 19.6671L47.1488 19.6669Z" fill="#494349"/>
<path d="M20.5995 13.8256L15.0064 12.675C14.8583 12.6447 14.7042 12.6727 14.5762 12.7532C14.4483 12.8338 14.3564 12.9607 14.3198 13.1074C14.2952 13.2128 14.2997 13.3229 14.3327 13.426C14.3656 13.5291 14.426 13.6214 14.5072 13.6929L16.5905 15.584L13.4786 16.7382C13.4054 16.7653 13.3384 16.8068 13.2815 16.8602C13.2246 16.9136 13.179 16.9778 13.1472 17.0491C13.1154 17.1203 13.0982 17.1972 13.0966 17.2752C13.0949 17.3532 13.1089 17.4308 13.1376 17.5033C13.1815 17.6099 13.2552 17.7015 13.35 17.767C13.4448 17.8326 13.5565 17.8693 13.6717 17.8728L14.8452 17.9263C14.2742 18.3842 13.5619 18.9794 12.8076 19.6671C12.7201 19.7468 12.6588 19.8511 12.6316 19.9663C12.6045 20.0815 12.6128 20.2022 12.6555 20.3126C12.6982 20.423 12.7732 20.5179 12.8708 20.5849C12.9684 20.6519 13.084 20.6878 13.2023 20.688H13.2036C13.3507 20.6876 13.4923 20.6323 13.6006 20.5329C14.6173 19.5989 15.6842 18.7209 16.7963 17.9029C16.8862 17.8405 16.9575 17.7549 17.0027 17.6552C17.0479 17.5556 17.0653 17.4455 17.053 17.3368C17.0366 17.214 16.9817 17.0996 16.8961 17.01C16.8105 16.9204 16.6987 16.8602 16.5768 16.8382L17.8805 16.3548C18.0283 16.3032 18.1507 16.1969 18.2223 16.0577C18.2785 15.9435 18.2961 15.8142 18.2723 15.6892C18.2485 15.5642 18.1847 15.4503 18.0906 15.3648L16.866 14.2532L20.388 14.9776C20.4681 14.9941 20.5508 14.9937 20.6307 14.9762C20.7106 14.9588 20.786 14.9249 20.8519 14.8766C20.9179 14.8283 20.9731 14.7667 21.0138 14.6958C21.0545 14.6248 21.0799 14.5462 21.0884 14.4649C21.1 14.3168 21.0565 14.1696 20.9663 14.0516C20.8761 13.9337 20.7455 13.8532 20.5995 13.8256Z" fill="#494349"/>
</g>
<defs>
<clipPath id="clip0_114_117">
<rect width="59.9569" height="59.9569" fill="white"/>
</clipPath>
</defs>
</svg>
